<?xml version="1.0" encoding="UTF-8" standalone="no"?>
<!-- Created with Inkscape (http://www.inkscape.org/) -->

<svg
   xmlns:dc="http://purl.org/dc/elements/1.1/"
   xmlns:cc="http://creativecommons.org/ns#"
   xmlns:rdf="http://www.w3.org/1999/02/22-rdf-syntax-ns#"
   xmlns:svg="http://www.w3.org/2000/svg"
   xmlns="http://www.w3.org/2000/svg"
   xmlns:sodipodi="http://sodipodi.sourceforge.net/DTD/sodipodi-0.dtd"
   xmlns:inkscape="http://www.inkscape.org/namespaces/inkscape"
   width="576.98779"
   height="235.30711"
   viewBox="0 0 576.9878 235.30711"
   id="svg2"
   version="1.1"
   inkscape:version="0.91 r"
   sodipodi:docname="venstre.svg"
   inkscape:export-filename="./venstre1.png"
   inkscape:export-xdpi="300"
   inkscape:export-ydpi="300">
  <sodipodi:namedview
     id="base"
     pagecolor="#ffffff"
     bordercolor="#666666"
     borderopacity="1.0"
     inkscape:pageopacity="0.0"
     inkscape:pageshadow="2"
     inkscape:zoom="1.4"
     inkscape:cx="407.83417"
     inkscape:cy="76.068764"
     inkscape:document-units="px"
     inkscape:current-layer="layer2"
     showgrid="false"
     units="px"
     inkscape:window-width="3127"
     inkscape:window-height="1776"
     inkscape:window-x="73"
     inkscape:window-y="24"
     inkscape:window-maximized="1"
     fit-margin-top="10"
     fit-margin-left="10"
     fit-margin-right="10"
     fit-margin-bottom="10">
    <inkscape:grid
       originy="-171.93209"
       originx="32.043038"
       type="xygrid"
       id="grid4136" />
  </sodipodi:namedview>
  <defs
     id="defs4" />
  <metadata
     id="metadata7">
    <rdf:RDF>
      <cc:Work
         rdf:about="">
        <dc:format>image/svg+xml</dc:format>
        <dc:type
           rdf:resource="http://purl.org/dc/dcmitype/StillImage" />
        <dc:title></dc:title>
      </cc:Work>
    </rdf:RDF>
  </metadata>
  <g
     inkscape:groupmode="layer"
     id="layer2"
     inkscape:label="Layer 2"
     style="display:inline"
     transform="translate(-6.851743,-3.8637571)">
    <path
       id="path5304"
       d="m 44.678328,190.12761 0,-0.008 0,-0.0157 0,-0.008 -0.0079,-0.0157 0,-0.0157 0,-0.0157 -0.0079,-0.0157 0,-0.0157 -0.0079,-0.0157 -0.0079,-0.0157 -0.0079,-0.0157 -0.0079,-0.0157 -0.0079,-0.0157 -0.0079,-0.0157 -0.0079,-0.0157 -0.01573,-0.0157 -0.0079,-0.0157 -0.01573,-0.0157 -0.01573,-0.0157 -0.01573,-0.0157 -0.01573,-0.008 -0.01573,-0.0157 -0.0236,-0.0157 -0.01573,-0.008 -0.0236,-0.008 -0.0079,-0.008 -0.01573,0 -0.0079,-0.008 -0.01573,0 -0.01573,-0.008 -0.0079,0 -0.01573,0 -0.01573,-0.008 -0.01573,0 -0.01573,0 -0.01573,0 -0.01573,0 -0.01573,0 -0.01573,-0.008 c -0.110111,0 -0.157301,0.0393 -0.589879,0.4719 l -2.736579,3.02019 c -0.346063,-0.55056 -2.155026,-3.49209 -6.504404,-3.49209 -8.738081,0 -17.562678,8.66729 -17.562678,17.74908 0,6.2307 4.349378,10.74052 10.704346,10.74052 1.722448,0 3.492086,-0.35628 4.892067,-0.93358 1.966265,-0.7865 2.70558,-1.60998 3.421301,-2.39648 0.353927,0.98313 1.360655,2.43345 1.753908,2.43345 0.196627,0 0.283142,-0.12348 0.283142,-0.15966 0.07079,-0.0739 0.464039,-1.56122 0.660665,-2.38469 l 0.739316,-3.02254 c 0.157301,-0.66381 0.353927,-1.32762 0.519094,-2.00323 0.424713,-1.75784 0.464038,-1.83099 2.697715,-1.88054 0.196627,0 0.629205,-0.037 0.629205,-0.77392 0,-0.28314 -0.196627,-0.43022 -0.503364,-0.43022 -0.912347,0 -3.216809,0.11011 -4.113426,0.11011 -1.219084,0 -4.278592,-0.11011 -5.497677,-0.11011 -0.346062,0 -0.825831,0 -0.825831,0.77392 0,0.43022 0.322468,0.43022 1.179759,0.43022 0.03933,0 1.179759,0 2.084241,0.0857 1.014593,0.1109 1.211219,0.23359 1.211219,0.73774 0,0.35629 -0.424713,2.12593 -0.817966,3.56366 -1.101109,4.31399 -6.197667,4.74342 -7.574052,4.74342 -3.759499,0 -7.86506,-2.22424 -7.86506,-8.22135 0,-1.21672 0.377523,-7.68023 4.498814,-12.78072 2.115701,-2.66861 5.92239,-5.05173 9.791999,-5.05173 4.01118,0 6.315643,3.01232 6.315643,7.55911 0,1.57301 -0.117976,1.60998 -0.117976,2.00323 0,0.39326 0.424713,0.39326 0.589879,0.39326 0.503364,0 0.503364,-0.0865 0.699991,-0.78651 z"
       inkscape:connector-curvature="0"
       style="font-style:normal;font-variant:normal;font-weight:normal;font-stretch:normal;letter-spacing:normal;word-spacing:normal;text-anchor:start;display:inline;fill:#000000;fill-opacity:1;fill-rule:evenodd;stroke:#000000;stroke-width:0;stroke-linecap:butt;stroke-linejoin:miter;stroke-miterlimit:10.43299961;stroke-dasharray:none;stroke-dashoffset:0;stroke-opacity:1" />
    <path
       id="path5306"
       d="m 47.140092,227.72102 -0.0079,0.037 -0.0079,0.0354 -0.0079,0.0346 -0.0079,0.033 0,0.0315 -0.0079,0.0299 -0.0079,0.0291 -0.0079,0.0267 0,0.0267 -0.0079,0.0244 0,0.0236 -0.0079,0.022 0,0.0212 -0.0079,0.0197 0,0.0189 0,0.0173 -0.0079,0.0165 0,0.0157 0,0.0142 0,0.0134 0,0.0118 -0.0079,0.0118 0,0.0102 0,0.009 0,0.009 0,0.008 0,0.006 0,0.006 0,0.005 0,0.004 0,0.004 0,0.002 c 0,0.60247 0.487634,0.87224 0.920212,0.87224 0.998863,0 1.203354,-0.89662 1.313465,-1.3638 0.06292,-0.13528 0.60561,-2.33514 1.266275,-5.01398 0.849426,0.5655 1.94267,0.78651 2.941532,0.78651 2.343788,0 3.877474,-1.9175 3.940395,-1.96627 0.519094,1.89234 2.414573,1.96627 2.815691,1.96627 0.998863,0 1.675258,-0.60247 2.178622,-1.45032 0.597744,-1.06886 0.959537,-2.63008 0.959537,-2.74019 0,-0.35628 -0.361793,-0.35628 -0.448308,-0.35628 -0.377523,0 -0.416849,0.11011 -0.597745,0.84785 -0.330332,1.31504 -0.849426,2.93681 -2.00559,2.93681 -0.707856,0 -0.904482,-0.60167 -0.904482,-1.33942 0,-0.46718 0.220222,-1.46211 0.416848,-2.17547 0.196627,-0.73696 0.464039,-1.85537 0.597745,-2.45783 l 0.629204,-2.44525 c 0.173032,-0.68819 0.464039,-1.89233 0.464039,-2.02761 0,-0.54112 -0.432578,-0.87302 -0.896617,-0.87302 -0.306737,0 -0.817966,0.13528 -1.132568,0.65201 -0.07865,0.17146 -0.291008,1.04448 -0.440444,1.59739 l -0.566284,2.27301 -0.841561,3.42916 c -0.196627,0.67561 -0.196627,0.73696 -0.448309,1.09324 -0.849426,1.20493 -2.05278,2.27379 -3.625792,2.27379 -2.233677,0 -2.233677,-1.94188 -2.233677,-2.44524 0,-0.71258 0.07079,-1.06965 0.464038,-2.54435 0.275277,-1.20414 0.322468,-1.40077 0.60561,-2.46963 l 0.377523,-1.53605 c 0.141571,-0.56549 0.408983,-1.60997 0.408983,-1.72087 0,-0.49157 -0.385388,-0.87224 -0.935942,-0.87224 -0.983133,0 -1.226949,0.95876 -1.313465,1.27808 z"
       inkscape:connector-curvature="0"
       style="font-style:normal;font-variant:normal;font-weight:normal;font-stretch:normal;letter-spacing:normal;word-spacing:normal;text-anchor:start;display:inline;fill:#000000;fill-opacity:1;fill-rule:evenodd;stroke:#000000;stroke-width:0;stroke-linecap:butt;stroke-linejoin:miter;stroke-miterlimit:10.43299961;stroke-dasharray:none;stroke-dashoffset:0;stroke-opacity:1" />
    <path
       id="path5308"
       d="m 71.616157,212.01529 0,-0.0212 0.0079,-0.0228 0.0079,-0.0228 0,-0.0244 0.0079,-0.0252 0,-0.0252 0.0079,-0.0259 0,-0.0259 0.0079,-0.0267 0,-0.0267 0,-0.0267 0.0079,-0.0275 0,-0.0267 0,-0.0259 0,-0.0259 0,-0.026 c 0,-0.0244 0,-0.38067 -0.432579,-0.38067 -0.03146,0 -1.596607,0.13528 -1.777503,0.13528 -0.526959,0.0488 -1.022458,0.0731 -1.533687,0.13449 -0.448308,0.0252 -0.778641,0.0496 -0.778641,0.62684 0,0.38146 0.385388,0.38146 0.715721,0.38146 1.313465,0 1.313465,0.17146 1.313465,0.41763 0,0.15966 -0.133706,0.71258 -0.243817,1.06887 l -1.36852,5.53071 c -0.684261,2.74018 -0.817967,3.2931 -0.817967,3.40399 0,0.38067 0.401118,0.38067 0.511229,0.38067 l 0.440444,0 c 2.438168,-0.38067 5.930254,-1.67132 8.848191,-4.27623 3.728039,-3.31827 4.278593,-6.88193 4.278593,-6.93148 0,-0.49156 -0.377523,-0.87223 -0.935942,-0.87223 -0.951672,0 -1.140434,0.76212 -1.399981,1.52346 -1.093243,3.89556 -4.766226,8.08685 -9.422341,9.46324 z"
       inkscape:connector-curvature="0"
       style="font-style:normal;font-variant:normal;font-weight:normal;font-stretch:normal;letter-spacing:normal;word-spacing:normal;text-anchor:start;display:inline;fill:#000000;fill-opacity:1;fill-rule:evenodd;stroke:#000000;stroke-width:0;stroke-linecap:butt;stroke-linejoin:miter;stroke-miterlimit:10.43299961;stroke-dasharray:none;stroke-dashoffset:0;stroke-opacity:1" />
    <path
       id="path5310"
       d="m 118.76718,208.35567 0.15731,0 0.0786,-0.002 0.1573,-0.003 0.0786,-0.003 0,-0.004 0.0786,-0.006 0.0787,-0.006 0.0786,-0.008 0,-0.009 0.0786,-0.0118 0.0787,-0.0126 0,-0.0157 0.0786,-0.0173 0.0786,-0.0197 0,-0.022 0.0786,-0.0244 0,-0.0275 0.0787,-0.0299 0,-0.0338 0.0786,-0.0362 0,-0.0393 0,-0.0212 0,-0.022 0.0787,-0.0236 0,-0.0236 0,-0.0252 0,-0.0252 0,-0.0267 0,-0.0283 0,-0.0283 0,-0.0299 0,-0.0307 0,-0.0322 0.0786,-0.0323 0,-0.0346 0,-0.0346 0,-0.037 c 0,-0.7865 -0.70786,-0.7865 -1.41572,-0.7865 l -21.188461,0 c -0.66853,0 -1.368521,0 -1.368521,0.7865 0,0.78651 0.699991,0.78651 1.368521,0.78651 z"
       inkscape:connector-curvature="0"
       style="font-style:normal;font-variant:normal;font-weight:normal;font-stretch:normal;letter-spacing:normal;word-spacing:normal;text-anchor:start;display:inline;fill:#000000;fill-opacity:1;fill-rule:evenodd;stroke:#000000;stroke-width:0;stroke-linecap:butt;stroke-linejoin:miter;stroke-miterlimit:10.43299961;stroke-dasharray:none;stroke-dashoffset:0;stroke-opacity:1" />
    <path
       id="path5312"
       d="m 146.6095,190.12761 0,-0.0315 0,-0.0315 0,-0.0315 0,-0.0315 -0.0787,-0.0315 0,-0.0315 0,-0.055 0,-0.0551 -0.0787,-0.0551 0,-0.0472 0,-0.0393 0,-0.0393 -0.0786,-0.0393 0,-0.0315 0,-0.0393 -0.0787,-0.0236 0,-0.0315 0,-0.0236 -0.0787,-0.0236 0,-0.0157 0,-0.0157 -0.0786,-0.0157 0,-0.0157 0,-0.0157 -0.0787,-0.008 0,-0.008 -0.0787,-0.008 0,-0.008 -0.0786,-0.008 0,0 0,-0.008 -0.0787,0 0,0 -0.0787,0 0,0 c -0.62921,0 -0.70786,0.1573 -0.94381,0.81796 l -7.4718,23.31597 c -0.39326,1.17976 -1.17976,2.70401 -3.93253,2.70401 l 0,1.21672 c 1.25841,-0.0739 3.30332,-0.12348 3.61792,-0.12348 1.17976,0 3.22468,0.0865 4.40444,0.12348 l 0,-1.21672 c -2.12357,-0.037 -2.98873,-1.09403 -2.98873,-2.0402 0,-0.19662 0,-0.30752 0.1573,-0.86044 l 5.8988,-18.25873 6.2134,19.27883 c 0.1573,0.55292 0.1573,0.62685 0.1573,0.70078 0,1.17976 -2.28087,1.17976 -3.30333,1.17976 l 0,1.21672 c 1.33706,-0.12348 4.16848,-0.12348 5.66285,-0.12348 1.49436,0 3.30332,0.0865 4.79768,0.12348 l 0,-1.21672 c -2.98872,0 -3.06737,-0.23359 -3.53927,-1.68391 z"
       inkscape:connector-curvature="0"
       style="font-style:normal;font-variant:normal;font-weight:normal;font-stretch:normal;letter-spacing:normal;word-spacing:normal;text-anchor:start;display:inline;fill:#000000;fill-opacity:1;fill-rule:evenodd;stroke:#000000;stroke-width:0;stroke-linecap:butt;stroke-linejoin:miter;stroke-miterlimit:10.43299961;stroke-dasharray:none;stroke-dashoffset:0;stroke-opacity:1" />
    <path
       id="path5314"
       d="m 177.75513,202.59216 0,-0.0433 0,-0.0425 0,-0.0425 0,-0.0417 0.0787,-0.0826 0,-0.0417 0,-0.0417 0,-0.0425 0,-0.0433 0,-0.0433 0,-0.0448 0,-0.0456 0,-0.0472 0,-0.0236 0,-0.0244 0,-0.0244 0,-0.0252 c 0,-0.6764 -0.39325,-1.06965 -1.10111,-1.06965 -0.39325,0 -1.41571,0.28314 -1.57301,1.69649 -0.70785,-1.45031 -2.12356,-2.47041 -3.69658,-2.47041 l 0.0786,0.86044 c 2.59547,0 3.14603,3.1704 3.14603,3.36703 0,0.19662 -0.0786,0.43022 -0.1573,0.58988 l -1.88762,7.48439 c -0.23595,1.01931 -1.10111,1.99064 -1.96626,2.74018 -0.86516,0.70078 -2.04492,1.41336 -3.22468,1.41336 -1.88761,0 -2.51682,-2.0402 -2.51682,-3.60063 0,-1.89312 1.17976,-6.51384 2.20222,-8.50449 1.02246,-1.9293 2.75277,-3.48972 4.40443,-3.48972 l -0.0786,-0.86044 c -4.48308,0 -9.28077,5.48116 -9.28077,11.12198 0,3.88298 2.35952,6.19373 5.19094,6.19373 2.28087,0 4.16848,-1.84357 4.56174,-2.27379 l 0,0.037 c -0.78651,3.48973 -1.25841,5.09971 -1.25841,5.17364 -0.1573,0.35629 -1.49436,4.24005 -5.66285,4.24005 -0.70785,0 -2.04491,-0.0496 -3.14602,-0.39325 1.17976,-0.35707 1.65166,-1.37638 1.65166,-2.0402 0,-0.62684 -0.4719,-1.37638 -1.49436,-1.37638 -0.86515,0 -2.12356,0.71257 -2.12356,2.273 0,1.60998 1.41571,2.39648 5.19094,2.39648 4.87633,0 7.70775,-3.0595 8.33696,-5.40722 z"
       inkscape:connector-curvature="0"
       style="font-style:normal;font-variant:normal;font-weight:normal;font-stretch:normal;letter-spacing:normal;word-spacing:normal;text-anchor:start;display:inline;fill:#000000;fill-opacity:1;fill-rule:evenodd;stroke:#000000;stroke-width:0;stroke-linecap:butt;stroke-linejoin:miter;stroke-miterlimit:10.43299961;stroke-dasharray:none;stroke-dashoffset:0;stroke-opacity:1" />
    <path
       id="path5316"
       d="m 179.48544,227.72102 0,0.037 -0.0787,0.0354 0,0.0346 0,0.033 0,0.0315 0,0.0299 0,0.0291 0,0.0267 0,0.0267 0,0.0244 0,0.0236 0,0.022 0,0.0212 0,0.0197 0,0.0189 0,0.0173 0,0.0165 0,0.0157 0,0.0142 0,0.0134 0,0.0118 0,0.0118 0,0.0102 0,0.009 0,0.009 0,0.008 0,0.006 0,0.006 0,0.005 0,0.004 0,0.004 0,0.002 c 0,0.60247 0.47191,0.87224 0.86516,0.87224 1.02246,0 1.17976,-0.89662 1.33706,-1.3638 0.0786,-0.13528 0.62921,-2.33514 1.25841,-5.01398 0.86516,0.5655 1.96626,0.78651 2.91007,0.78651 2.35952,0 3.93253,-1.9175 3.93253,-1.96627 0.55056,1.89234 2.43817,1.96627 2.83142,1.96627 1.02246,0 1.73032,-0.60247 2.20222,-1.45032 0.6292,-1.06886 0.94381,-2.63008 0.94381,-2.74019 0,-0.35628 -0.31461,-0.35628 -0.47191,-0.35628 -0.3146,0 -0.39325,0.11011 -0.55055,0.84785 -0.3146,1.31504 -0.86516,2.93681 -2.04492,2.93681 -0.70785,0 -0.86515,-0.60167 -0.86515,-1.33942 0,-0.46718 0.23595,-1.46211 0.39325,-2.17547 0.23595,-0.73696 0.4719,-1.85537 0.6292,-2.45783 l 0.62921,-2.44525 c 0.1573,-0.68819 0.4719,-1.89233 0.4719,-2.02761 0,-0.54112 -0.4719,-0.87302 -0.9438,-0.87302 -0.31461,0 -0.78651,0.13528 -1.10111,0.65201 -0.0787,0.17146 -0.3146,1.04448 -0.47191,1.59739 l -0.55055,2.27301 -0.86516,3.42916 c -0.1573,0.67561 -0.1573,0.73696 -0.39325,1.09324 -0.86516,1.20493 -2.04492,2.27379 -3.61793,2.27379 -2.28086,0 -2.28086,-1.94188 -2.28086,-2.44524 0,-0.71258 0.0787,-1.06965 0.4719,-2.54435 0.3146,-1.20414 0.3146,-1.40077 0.6292,-2.46963 l 0.39326,-1.53605 c 0.0787,-0.56549 0.39325,-1.60997 0.39325,-1.72087 0,-0.49157 -0.39325,-0.87224 -0.94381,-0.87224 -1.02245,0 -1.25841,0.95876 -1.33706,1.27808 z"
       inkscape:connector-curvature="0"
       style="font-style:normal;font-variant:normal;font-weight:normal;font-stretch:normal;letter-spacing:normal;word-spacing:normal;text-anchor:start;display:inline;fill:#000000;fill-opacity:1;fill-rule:evenodd;stroke:#000000;stroke-width:0;stroke-linecap:butt;stroke-linejoin:miter;stroke-miterlimit:10.43299961;stroke-dasharray:none;stroke-dashoffset:0;stroke-opacity:1" />
    <path
       id="path5318"
       d="m 203.94578,212.01529 0,-0.0212 0,-0.0228 0,-0.0228 0,-0.0244 0,-0.0252 0,-0.0252 0,-0.0259 0,-0.0259 0,-0.0267 0,-0.0267 0,-0.0267 0,-0.0275 0,-0.0267 0,-0.0259 0,-0.0259 0,-0.026 c 0,-0.0244 0,-0.38067 -0.39325,-0.38067 0,0 -1.57302,0.13528 -1.80897,0.13528 -0.4719,0.0488 -1.02246,0.0731 -1.49436,0.13449 -0.4719,0.0252 -0.7865,0.0496 -0.7865,0.62684 0,0.38146 0.39325,0.38146 0.70785,0.38146 1.33706,0 1.33706,0.17146 1.33706,0.41763 0,0.15966 -0.1573,0.71258 -0.23595,1.06887 l -1.41571,5.53071 c -0.62921,2.74018 -0.78651,3.2931 -0.78651,3.40399 0,0.38067 0.39326,0.38067 0.47191,0.38067 l 0.4719,0 c 2.43817,-0.38067 5.89879,-1.67132 8.88752,-4.27623 3.69657,-3.31827 4.24713,-6.88193 4.24713,-6.93148 0,-0.49156 -0.39325,-0.87223 -0.94381,-0.87223 -0.94381,0 -1.17976,0.76212 -1.41571,1.52346 -1.10111,3.89556 -4.71903,8.08685 -9.43807,9.46324 z"
       inkscape:connector-curvature="0"
       style="font-style:normal;font-variant:normal;font-weight:normal;font-stretch:normal;letter-spacing:normal;word-spacing:normal;text-anchor:start;display:inline;fill:#000000;fill-opacity:1;fill-rule:evenodd;stroke:#000000;stroke-width:0;stroke-linecap:butt;stroke-linejoin:miter;stroke-miterlimit:10.43299961;stroke-dasharray:none;stroke-dashoffset:0;stroke-opacity:1" />
    <path
       id="path5320"
       d="m 254.36081,204.54663 0.1573,-7.9e-4 0.0787,-7.9e-4 0.0786,-0.004 0.0787,-0.003 0.0787,-0.004 0.0786,-0.005 0,-0.006 0.0787,-0.008 0.0786,-0.009 0,-0.011 0.0787,-0.0134 0.0787,-0.0149 0,-0.0165 0.0786,-0.0197 0.0787,-0.022 0,-0.0236 0.0787,-0.0275 0,-0.0299 0.0786,-0.0323 0,-0.0362 0,-0.0393 0.0787,-0.0205 0,-0.022 0,-0.022 0,-0.0236 0,-0.0244 0,-0.0259 0,-0.0259 0.0786,-0.0275 0,-0.0283 0,-0.0291 0,-0.0307 0,-0.0307 0,-0.033 0,-0.033 0,-0.0346 0,-0.0362 c 0,-0.7865 -0.78651,-0.7865 -1.25841,-0.7865 l -23.51653,0 c -0.55055,0 -1.25841,0 -1.25841,0.7865 0,0.77471 0.70786,0.77471 1.33706,0.77471 z"
       inkscape:connector-curvature="0"
       style="font-style:normal;font-variant:normal;font-weight:normal;font-stretch:normal;letter-spacing:normal;word-spacing:normal;text-anchor:start;display:inline;fill:#000000;fill-opacity:1;fill-rule:evenodd;stroke:#000000;stroke-width:0;stroke-linecap:butt;stroke-linejoin:miter;stroke-miterlimit:10.43299961;stroke-dasharray:none;stroke-dashoffset:0;stroke-opacity:1" />
    <path
       id="path5322"
       d="m 254.43946,212.15371 0,-7.9e-4 0.0787,0 0.0787,-7.8e-4 0.1573,-0.004 0,-0.003 0.0787,-0.004 0.0786,-0.006 0,-0.006 0.0787,-0.008 0.0786,-0.009 0,-0.0118 0.0787,-0.0126 0.0787,-0.0149 0,-0.0173 0.0786,-0.0197 0.0787,-0.022 0,-0.0252 0.0787,-0.0275 0,-0.0299 0.0786,-0.033 0,-0.037 0,-0.0197 0,-0.0197 0.0787,-0.0212 0,-0.022 0,-0.0236 0,-0.0236 0,-0.0244 0,-0.0259 0,-0.0267 0.0786,-0.0275 0,-0.0291 0,-0.0299 0,-0.0307 0,-0.0315 0,-0.033 0,-0.0346 0,-0.0346 0,-0.0362 c 0,-0.78651 -0.78651,-0.78651 -1.33706,-0.78651 l -23.35923,0 c -0.6292,0 -1.33706,0 -1.33706,0.78651 0,0.7865 0.70786,0.7865 1.25841,0.7865 z"
       inkscape:connector-curvature="0"
       style="font-style:normal;font-variant:normal;font-weight:normal;font-stretch:normal;letter-spacing:normal;word-spacing:normal;text-anchor:start;display:inline;fill:#000000;fill-opacity:1;fill-rule:evenodd;stroke:#000000;stroke-width:0;stroke-linecap:butt;stroke-linejoin:miter;stroke-miterlimit:10.43299961;stroke-dasharray:none;stroke-dashoffset:0;stroke-opacity:1" />
    <path
       id="path5324"
       d="m 283.06828,203.18204 0.23595,-0.13764 0.23595,-0.14079 0.3146,-0.14471 0.23596,-0.14787 0.23595,-0.15179 0.23595,-0.15494 0.23595,-0.15809 0.1573,-0.16123 0.23595,-0.16517 0.23596,-0.16831 0.1573,-0.17146 0.23595,-0.17539 0.1573,-0.17854 0.1573,-0.18168 0.1573,-0.18483 0.23595,-0.18876 0.0786,-0.19191 0.15731,-0.19505 0.1573,-0.1982 0.1573,-0.20135 0.0787,-0.20528 0.0786,-0.20842 0.1573,-0.21078 0.0786,-0.21472 0.0786,-0.21865 0.0787,-0.22101 0,-0.22415 0.0786,-0.2273 0.0786,-0.23123 0,-0.2336 0,-0.23752 0,-0.23989 c 0,-3.61006 -3.46062,-5.8516 -6.9999,-5.8516 l -0.0787,0.98313 c 2.83142,0 5.34824,2.04492 5.34824,4.86847 0,2.22424 -1.49436,4.10399 -3.85388,5.48038 l -4.87634,-3.13344 c -1.80896,-1.17976 -1.96626,-2.50738 -1.96626,-3.17041 0,-2.39333 2.59547,-4.045 5.34824,-4.045 l 0.0787,-0.98313 c -3.93253,0 -7.1572,2.90221 -7.1572,6.55159 0,0.70078 0.0786,2.47042 1.73031,4.31399 0.4719,0.4664 1.88761,1.44953 2.91007,2.11334 l 0.86516,0.58988 4.79768,3.04771 c 1.10111,0.74954 2.98873,1.9293 2.98873,4.3132 0,2.90063 -2.98873,4.94083 -6.13475,4.94083 -3.38197,0 -6.2134,-2.43345 -6.2134,-5.67779 0,-2.27378 1.25841,-4.78038 4.56174,-6.62395 l 0,0 -0.86516,-0.58988 c -2.28087,1.131 -5.66284,3.33007 -5.66284,7.21383 0,4.15354 4.01118,6.77103 8.10101,6.77103 4.40443,0 8.17966,-3.25613 8.17966,-7.44663 0,-1.40156 -0.4719,-3.1712 -1.96626,-4.81735 -0.70786,-0.82348 -1.33706,-1.21673 -3.85388,-2.77794 z"
       inkscape:connector-curvature="0"
       style="font-style:normal;font-variant:normal;font-weight:normal;font-stretch:normal;letter-spacing:normal;word-spacing:normal;text-anchor:start;display:inline;fill:#000000;fill-opacity:1;fill-rule:evenodd;stroke:#000000;stroke-width:0;stroke-linecap:butt;stroke-linejoin:miter;stroke-miterlimit:10.43299961;stroke-dasharray:none;stroke-dashoffset:0;stroke-opacity:1" />
    <path
       id="path5326"
       d="m 301.00061,202.75182 4.40444,0 c -1.33706,5.80048 -1.65167,7.48439 -1.65167,10.10188 0,0.58988 0,1.64694 0.31461,2.98636 0.39325,1.72088 0.7865,1.95368 1.41571,1.95368 0.7865,0 1.57301,-0.69999 1.57301,-1.48649 0,-0.23359 0,-0.31932 -0.23595,-0.86044 -1.10111,-2.8267 -1.10111,-5.37026 -1.10111,-6.46429 0,-2.07638 0.23595,-4.2023 0.70785,-6.2307 l 4.48309,0 c 0.4719,0 1.88761,0 1.88761,-1.33942 0,-0.93358 -0.7865,-0.93358 -1.57301,-0.93358 l -13.13465,0 c -0.86516,0 -2.35952,0 -4.08983,1.84357 -1.33706,1.52346 -2.35952,3.33006 -2.35952,3.52669 0,0.037 0,0.38067 0.47191,0.38067 0.3146,0 0.39325,-0.14708 0.6292,-0.4664 1.88762,-3.01153 4.16848,-3.01153 4.95499,-3.01153 l 2.28087,0 c -1.25841,4.73162 -3.38198,9.47504 -5.03364,13.03948 -0.3146,0.58988 -0.3146,0.67561 -0.3146,0.94617 0,0.74954 0.6292,1.05627 1.1011,1.05627 1.17976,0 1.49436,-1.09324 1.96627,-2.54356 0.55055,-1.8066 0.55055,-1.88053 1.10111,-3.8468 z"
       inkscape:connector-curvature="0"
       style="font-style:normal;font-variant:normal;font-weight:normal;font-stretch:normal;letter-spacing:normal;word-spacing:normal;text-anchor:start;display:inline;fill:#000000;fill-opacity:1;fill-rule:evenodd;stroke:#000000;stroke-width:0;stroke-linecap:butt;stroke-linejoin:miter;stroke-miterlimit:10.43299961;stroke-dasharray:none;stroke-dashoffset:0;stroke-opacity:1" />
    <path
       id="path5328"
       d="m 331.12379,193.58824 0,-0.0551 0,-0.0472 0,-0.10224 0.0787,-0.0865 0,-0.0865 0,-0.0865 0.0786,-0.0787 0,-0.0708 0,-0.0708 0,-0.0629 0.0786,-0.0629 0,-0.0551 0,-0.0551 0.0787,-0.0472 0,-0.0472 0,-0.0472 0.0786,-0.0393 0,-0.0393 0,-0.0315 0,-0.0393 0.0787,-0.0236 0,-0.0315 0.0786,-0.0236 0,-0.0236 0,-0.0236 0.0786,-0.0157 0,-0.0236 0.0787,-0.0157 0,-0.0157 0.0786,-0.008 0,-0.0157 0.0786,-0.0157 0,-0.008 c 0.39325,-0.0865 1.65166,-0.0865 2.51682,-0.0865 3.93253,0 5.66284,0.16517 5.66284,3.22467 0,0.57415 -0.1573,2.1102 -0.3146,3.1303 0,0.14786 -0.0786,0.62684 -0.0786,0.73774 0,0.23359 0.0786,0.51595 0.4719,0.51595 0.39325,0 0.4719,-0.31932 0.55055,-0.9092 l 1.10111,-6.80957 c 0,-0.1573 0.0786,-0.55056 0.0786,-0.6764 0,-0.42471 -0.39325,-0.42471 -1.1011,-0.42471 l -21.70757,0 c -0.94381,0 -1.02246,0.0472 -1.25841,0.78651 l -2.35952,6.89057 c -0.0786,0.0857 -0.23595,0.62685 -0.23595,0.71258 0,0.23359 0.1573,0.43022 0.47191,0.43022 0.39325,0 0.39325,-0.19663 0.6292,-0.82347 2.12357,-6.06947 3.14602,-6.78519 8.96617,-6.78519 l 1.49436,0 c 1.10111,0 1.10111,0.16517 1.10111,0.4719 0,0.24382 -0.0787,0.70786 -0.1573,0.81797 l -5.19094,20.9305 c -0.39326,1.45031 -0.47191,1.88053 -4.71904,1.88053 -1.41571,0 -1.65166,0 -1.65166,0.74954 0,0.46719 0.4719,0.46719 0.70785,0.46719 1.02246,0 2.12357,-0.0739 3.22468,-0.0739 1.10111,0 2.20222,-0.0496 3.30332,-0.0496 1.10111,0 2.20222,0.0496 3.22468,0.0496 1.17976,0 2.35952,0.0739 3.46062,0.0739 0.39326,0 0.86516,0 0.86516,-0.78651 0,-0.43022 -0.3146,-0.43022 -1.33706,-0.43022 -1.02246,0 -1.49436,0 -2.51682,-0.0739 -1.17976,-0.12269 -1.49436,-0.23359 -1.49436,-0.86044 0,-0.0488 0,-0.24539 0.1573,-0.82347 z"
       inkscape:connector-curvature="0"
       style="font-style:normal;font-variant:normal;font-weight:normal;font-stretch:normal;letter-spacing:normal;word-spacing:normal;text-anchor:start;display:inline;fill:#000000;fill-opacity:1;fill-rule:evenodd;stroke:#000000;stroke-width:0;stroke-linecap:butt;stroke-linejoin:miter;stroke-miterlimit:10.43299961;stroke-dasharray:none;stroke-dashoffset:0;stroke-opacity:1" />
    <path
       id="path5330"
       d="m 338.7529,227.72102 0,0.037 0,0.0354 0,0.0346 0,0.033 0,0.0315 0,0.0299 0,0.0291 0,0.0267 0,0.0267 0,0.0244 -0.0786,0.0236 0,0.022 0,0.0212 0,0.0197 0,0.0189 0,0.0173 0,0.0165 0,0.0157 0,0.0142 0,0.0134 0,0.0118 0,0.0118 0,0.0102 0,0.009 0,0.009 0,0.008 0,0.006 0,0.006 0,0.005 0,0.004 0,0.004 0,0.002 c 0,0.60247 0.4719,0.87224 0.94381,0.87224 1.02245,0 1.17975,-0.89662 1.33706,-1.3638 0,-0.13528 0.55055,-2.33514 1.25841,-5.01398 0.7865,0.5655 1.88761,0.78651 2.91007,0.78651 2.35952,0 3.85388,-1.9175 3.93253,-1.96627 0.55055,1.89234 2.43817,1.96627 2.83142,1.96627 1.02246,0 1.65166,-0.60247 2.20222,-1.45032 0.55055,-1.06886 0.9438,-2.63008 0.9438,-2.74019 0,-0.35628 -0.39325,-0.35628 -0.4719,-0.35628 -0.39325,0 -0.39325,0.11011 -0.55056,0.84785 -0.39325,1.31504 -0.86515,2.93681 -2.04491,2.93681 -0.70786,0 -0.94381,-0.60167 -0.94381,-1.33942 0,-0.46718 0.23595,-1.46211 0.47191,-2.17547 0.1573,-0.73696 0.4719,-1.85537 0.55055,-2.45783 l 0.6292,-2.44525 c 0.23596,-0.68819 0.47191,-1.89233 0.47191,-2.02761 0,-0.54112 -0.39325,-0.87302 -0.86516,-0.87302 -0.3146,0 -0.86516,0.13528 -1.10111,0.65201 -0.1573,0.17146 -0.3146,1.04448 -0.4719,1.59739 l -0.55055,2.27301 -0.86516,3.42916 c -0.23595,0.67561 -0.23595,0.73696 -0.4719,1.09324 -0.78651,1.20493 -2.04492,2.27379 -3.61793,2.27379 -2.20222,0 -2.20222,-1.94188 -2.20222,-2.44524 0,-0.71258 0.0787,-1.06965 0.4719,-2.54435 0.23596,-1.20414 0.31461,-1.40077 0.55056,-2.46963 l 0.39325,-1.53605 c 0.1573,-0.56549 0.39325,-1.60997 0.39325,-1.72087 0,-0.49157 -0.3146,-0.87224 -0.9438,-0.87224 -0.94381,0 -1.17976,0.95876 -1.25841,1.27808 z"
       inkscape:connector-curvature="0"
       style="font-style:normal;font-variant:normal;font-weight:normal;font-stretch:normal;letter-spacing:normal;word-spacing:normal;text-anchor:start;display:inline;fill:#000000;fill-opacity:1;fill-rule:evenodd;stroke:#000000;stroke-width:0;stroke-linecap:butt;stroke-linejoin:miter;stroke-miterlimit:10.43299961;stroke-dasharray:none;stroke-dashoffset:0;stroke-opacity:1" />
    <path
       id="path5332"
       d="m 363.21323,212.01529 0.0786,-0.0212 0,-0.0228 0,-0.0228 0,-0.0244 0,-0.0252 0,-0.0252 0,-0.0259 0,-0.0259 0,-0.0267 0,-0.0267 0,-0.0267 0,-0.0275 0,-0.0267 0,-0.0259 0,-0.0259 0,-0.026 c 0,-0.0244 0,-0.38067 -0.39325,-0.38067 -0.0787,0 -1.65166,0.13528 -1.80896,0.13528 -0.55056,0.0488 -1.02246,0.0731 -1.57301,0.13449 -0.39326,0.0252 -0.70786,0.0496 -0.70786,0.62684 0,0.38146 0.39325,0.38146 0.70786,0.38146 1.25841,0 1.25841,0.17146 1.25841,0.41763 0,0.15966 -0.0787,0.71258 -0.23596,1.06887 l -1.33706,5.53071 c -0.70785,2.74018 -0.7865,3.2931 -0.7865,3.40399 0,0.38067 0.39325,0.38067 0.4719,0.38067 l 0.47191,0 c 2.43816,-0.38067 5.89879,-1.67132 8.80886,-4.27623 3.69658,-3.31827 4.32578,-6.88193 4.32578,-6.93148 0,-0.49156 -0.39325,-0.87223 -0.9438,-0.87223 -1.02246,0 -1.17976,0.76212 -1.41571,1.52346 -1.10111,3.89556 -4.79769,8.08685 -9.43807,9.46324 z"
       inkscape:connector-curvature="0"
       style="font-style:normal;font-variant:normal;font-weight:normal;font-stretch:normal;letter-spacing:normal;word-spacing:normal;text-anchor:start;display:inline;fill:#000000;fill-opacity:1;fill-rule:evenodd;stroke:#000000;stroke-width:0;stroke-linecap:butt;stroke-linejoin:miter;stroke-miterlimit:10.43299961;stroke-dasharray:none;stroke-dashoffset:0;stroke-opacity:1" />
  </g>
  <g
     inkscape:groupmode="layer"
     id="layer3"
     inkscape:label="Layer 3"
     style="display:inline"
     transform="translate(-6.851743,-3.8637571)">
    <path
       id="path5232"
       d="m 56.239972,96.887331 0,0.07865 0,0.07865 0,0.149436 -0.0079,0.141571 -0.01573,0.133706 -0.01573,0.117976 -0.01573,0.117976 -0.0236,0.102245 -0.03146,0.09438 -0.03146,0.08652 -0.03932,0.08651 -0.03932,0.07079 -0.05506,0.07079 -0.05506,0.06292 -0.06292,0.05505 -0.07079,0.04719 -0.07865,0.03933 -0.08652,0.03932 -0.09438,0.03933 -0.102246,0.0236 -0.110111,0.03146 -0.117976,0.01573 -0.125841,0.0236 -0.141571,0.0079 -0.07079,0.0079 -0.07865,0.0079 -0.07865,0.0079 -0.07865,0 -0.08652,0.0079 -0.08652,0 -0.08652,0 -0.09438,0.0079 -0.09438,0 -0.09438,0 -0.102246,0 -0.102246,0 -0.110111,0 -0.102245,0 -0.117976,0 -0.110111,0 -0.117976,0 -0.125841,0 0,1.219084 c 1.305605,-0.03955 3.138164,-0.126063 4.278598,-0.126063 1.164029,0 2.737041,0.05505 4.310052,0.125841 l 0,-1.219084 c -2.626929,0 -3.059508,0 -3.059508,-1.753908 l 0,-4.042641 2.508954,-2.155026 c 3.012319,4.160616 4.656116,6.347103 4.656116,7.054958 0,0.739316 -0.660665,0.896617 -1.399981,0.896617 l 0,1.219084 c 1.093244,-0.03932 3.405571,-0.125841 4.231402,-0.125841 1.124704,0 2.273003,0.05505 3.397706,0.125841 l 0,-1.219084 c -1.447171,0 -2.304462,0 -3.790959,-2.076376 L 63.334256,89.54923 c -0.03933,-0.07079 -0.235952,-0.306737 -0.235952,-0.432578 0,-0.141571 2.776366,-2.501089 3.169619,-2.807827 2.469629,-2.00559 4.121291,-2.076375 4.939257,-2.115701 l 0,-1.219084 c -1.124703,0.110111 -1.643797,0.110111 -2.73704,0.110111 -1.415711,0 -3.846014,-0.07079 -4.388704,-0.110111 l 0,1.219084 c 0.739316,0.03933 1.132569,0.464039 1.132569,0.967403 0,0.786506 -0.542689,1.258409 -0.865157,1.541551 l -5.529137,4.774092 0,-18.813223 -5.639248,0.432578 0,1.219085 c 2.744906,0 3.059509,0.267412 3.059509,2.194351 z"
       inkscape:connector-curvature="0"
       style="font-style:normal;font-variant:normal;font-weight:normal;font-stretch:normal;letter-spacing:normal;word-spacing:normal;text-anchor:start;display:inline;fill:#000000;fill-opacity:1;fill-rule:evenodd;stroke:#000000;stroke-width:0;stroke-linecap:butt;stroke-linejoin:miter;stroke-miterlimit:10.43299961;stroke-dasharray:none;stroke-dashoffset:0;stroke-opacity:1" />
    <path
       id="path5234"
       d="m 79.292461,86.84365 0,-4.302188 -5.442621,0.432578 0,1.219084 c 2.737041,0 3.059508,0.267412 3.059508,2.186487 l 0,10.50772 c 0,1.753908 -0.432578,1.753908 -3.059508,1.753908 l 0,1.219084 c 1.533687,-0.03932 3.366246,-0.125841 4.475219,-0.125841 1.557282,0 3.397706,0 4.970718,0.125841 l 0,-1.219084 -0.817966,0 c -2.902207,0 -2.988723,-0.424713 -2.988723,-1.840424 l 0,-6.032501 c 0,-3.869609 1.643797,-7.361695 4.63252,-7.361695 0.275277,0 0.346063,0 0.432578,0.03932 -0.125841,0.03146 -0.912347,0.503364 -0.912347,1.517956 0,1.108974 0.825832,1.683123 1.698853,1.683123 0.699991,0 1.683123,-0.464038 1.683123,-1.714583 0,-1.258409 -1.219084,-2.390978 -2.902207,-2.390978 -2.862882,0 -4.278592,2.619065 -4.829147,4.302188 z"
       inkscape:connector-curvature="0"
       style="font-style:normal;font-variant:normal;font-weight:normal;font-stretch:normal;letter-spacing:normal;word-spacing:normal;text-anchor:start;display:inline;fill:#000000;fill-opacity:1;fill-rule:evenodd;stroke:#000000;stroke-width:0;stroke-linecap:butt;stroke-linejoin:miter;stroke-miterlimit:10.43299961;stroke-dasharray:none;stroke-dashoffset:0;stroke-opacity:1" />
    <path
       id="path5236"
       d="m 103.46179,96.76149 0,3.53141 5.63138,-0.432577 0,-1.219084 c -2.75277,0 -3.05164,-0.267412 -3.05164,-2.186487 l 0,-13.91329 -5.76509,0.432578 0,1.219084 c 2.75277,0 3.05951,0.267412 3.05951,2.186487 l 0,6.976308 c 0,3.405571 -1.87975,6.071826 -4.742633,6.071826 -3.279729,0 -3.437031,-1.840424 -3.437031,-3.877475 l 0,-13.008808 -5.765088,0.432578 0,1.219084 c 3.059508,0 3.059508,0.110111 3.059508,3.602198 l 0,5.875199 c 0,3.059508 0,6.622379 5.945985,6.622379 2.202219,0 3.924669,-1.093242 5.065099,-3.53141 z"
       inkscape:connector-curvature="0"
       style="font-style:normal;font-variant:normal;font-weight:normal;font-stretch:normal;letter-spacing:normal;word-spacing:normal;text-anchor:start;display:inline;fill:#000000;fill-opacity:1;fill-rule:evenodd;stroke:#000000;stroke-width:0;stroke-linecap:butt;stroke-linejoin:miter;stroke-miterlimit:10.43299961;stroke-dasharray:none;stroke-dashoffset:0;stroke-opacity:1" />
    <path
       id="path5238"
       d="m 114.28411,86.379611 0,10.50772 c 0,1.753908 -0.4719,1.753908 -3.06737,1.753908 l 0,1.219084 c 1.33706,-0.03932 3.38197,-0.125841 4.40443,-0.125841 1.02246,0 3.06737,0.08652 4.40443,0.125841 l 0,-1.219084 c -2.67412,0 -3.06737,0 -3.06737,-1.753908 l 0,-7.21226 c 0,-4.081966 2.75277,-6.268452 5.26959,-6.268452 2.51682,0 2.91007,2.115701 2.91007,4.349377 l 0,9.131335 c 0,1.753908 -0.39325,1.753908 -3.06737,1.753908 l 0,1.219084 c 1.41571,-0.03932 3.38198,-0.125841 4.40443,-0.125841 1.02246,0 3.06738,0.08652 4.40444,0.125841 l 0,-1.219084 c -2.59547,0 -3.06738,0 -3.06738,-1.753908 l 0,-7.21226 c 0,-4.081966 2.83142,-6.268452 5.34824,-6.268452 2.43817,0 2.91008,2.115701 2.91008,4.349377 l 0,9.131335 c 0,1.753908 -0.47191,1.753908 -3.06738,1.753908 l 0,1.219084 c 1.33706,-0.03932 3.30333,-0.125841 4.40444,-0.125841 1.02245,0 3.06737,0.08652 4.40443,0.125841 l 0,-1.219084 c -2.04492,0 -2.98872,0 -3.06737,-1.179759 l 0,-7.479672 c 0,-3.366245 0,-4.585329 -1.25841,-5.98531 -0.55056,-0.676395 -1.80897,-1.455036 -4.08983,-1.455036 -3.30333,0 -5.03364,2.351653 -5.66285,3.838149 -0.55055,-3.405571 -3.46062,-3.838149 -5.19094,-3.838149 -2.91007,0 -4.71903,1.690988 -5.82014,4.105561 l 0,-4.105561 -5.50554,0.432578 0,1.219084 c 2.75277,0 3.06737,0.267412 3.06737,2.186487 z"
       inkscape:connector-curvature="0"
       style="font-style:normal;font-variant:normal;font-weight:normal;font-stretch:normal;letter-spacing:normal;word-spacing:normal;text-anchor:start;display:inline;fill:#000000;fill-opacity:1;fill-rule:evenodd;stroke:#000000;stroke-width:0;stroke-linecap:butt;stroke-linejoin:miter;stroke-miterlimit:10.43299961;stroke-dasharray:none;stroke-dashoffset:0;stroke-opacity:1" />
    <path
       id="path5240"
       d="m 146.92411,86.379611 0,10.50772 c 0,1.753908 -0.47191,1.753908 -3.06738,1.753908 l 0,1.219084 c 1.33706,-0.03932 3.38198,-0.125841 4.40444,-0.125841 1.02246,0 3.06737,0.08652 4.40443,0.125841 l 0,-1.219084 c -2.59547,0 -3.06737,0 -3.06737,-1.753908 l 0,-7.21226 c 0,-4.081966 2.75277,-6.268452 5.26959,-6.268452 2.51682,0 2.91007,2.115701 2.91007,4.349377 l 0,9.131335 c 0,1.753908 -0.39325,1.753908 -3.06737,1.753908 l 0,1.219084 c 1.41571,-0.03932 3.38197,-0.125841 4.48308,-0.125841 1.02246,0 2.98872,0.08652 4.40443,0.125841 l 0,-1.219084 c -2.04491,0 -3.06737,0 -3.06737,-1.179759 l 0,-7.479672 c 0,-3.366245 0,-4.585329 -1.25841,-5.98531 -0.55055,-0.676395 -1.80896,-1.455036 -4.08983,-1.455036 -2.83142,0 -4.71904,1.690988 -5.82014,4.105561 l 0,-4.105561 -5.50555,0.432578 0,1.219084 c 2.75278,0 3.06738,0.267412 3.06738,2.186487 z"
       inkscape:connector-curvature="0"
       style="font-style:normal;font-variant:normal;font-weight:normal;font-stretch:normal;letter-spacing:normal;word-spacing:normal;text-anchor:start;display:inline;fill:#000000;fill-opacity:1;fill-rule:evenodd;stroke:#000000;stroke-width:0;stroke-linecap:butt;stroke-linejoin:miter;stroke-miterlimit:10.43299961;stroke-dasharray:none;stroke-dashoffset:0;stroke-opacity:1" />
    <path
       id="path5242"
       d="m 171.30579,82.541462 -5.42689,0.432578 0,1.219084 c 2.51682,0 2.83142,0.235952 2.83142,2.147162 l 0,10.547045 c 0,1.753908 -0.39325,1.753908 -2.98872,1.753908 l 0,1.219084 c 1.17976,-0.03932 3.30333,-0.125841 4.24713,-0.125841 1.41571,0 2.75277,0.08652 4.08983,0.125841 l 0,-1.219084 c -2.59547,0 -2.75277,-0.196627 -2.75277,-1.714583 z"
       inkscape:connector-curvature="0"
       style="font-style:normal;font-variant:normal;font-weight:normal;font-stretch:normal;letter-spacing:normal;word-spacing:normal;text-anchor:start;display:inline;fill:#000000;fill-opacity:1;fill-rule:evenodd;stroke:#000000;stroke-width:0;stroke-linecap:butt;stroke-linejoin:miter;stroke-miterlimit:10.43299961;stroke-dasharray:none;stroke-dashoffset:0;stroke-opacity:1" />
    <path
       id="path5244"
       d="m 171.46309,75.722455 0,-0.11011 0,-0.117976 0,-0.110111 0,-0.110111 -0.0786,-0.102246 0,-0.102246 0,-0.102245 -0.0786,-0.09438 0,-0.09438 -0.0787,-0.08652 -0.0786,-0.09438 0,-0.07865 -0.0786,-0.07865 -0.0786,-0.07865 -0.0787,-0.07865 -0.0786,-0.06292 -0.0786,-0.07079 -0.0787,-0.06292 -0.0786,-0.05506 -0.0786,-0.05505 -0.0786,-0.05505 -0.0787,-0.04719 -0.0787,-0.03933 -0.0786,-0.03932 -0.0786,-0.03146 -0.1573,-0.03146 -0.0786,-0.0236 -0.0786,-0.0236 -0.0787,-0.01573 -0.1573,-0.0079 -0.0786,-0.0079 -0.0787,-0.0079 c -1.25841,0 -2.12357,1.061783 -2.12357,2.076375 0,1.061783 0.86516,2.076376 2.12357,2.076376 1.10111,0 2.04491,-0.817966 2.04491,-2.076376 z"
       inkscape:connector-curvature="0"
       style="font-style:normal;font-variant:normal;font-weight:normal;font-stretch:normal;letter-spacing:normal;word-spacing:normal;text-anchor:start;display:inline;fill:#000000;fill-opacity:1;fill-rule:evenodd;stroke:#000000;stroke-width:0;stroke-linecap:butt;stroke-linejoin:miter;stroke-miterlimit:10.43299961;stroke-dasharray:none;stroke-dashoffset:0;stroke-opacity:1" />
    <path
       id="path5246"
       d="m 179.56411,86.379611 0,10.50772 c 0,1.753908 -0.47191,1.753908 -3.06738,1.753908 l 0,1.219084 c 1.33706,-0.03932 3.38198,-0.125841 4.40444,-0.125841 1.02245,0 3.06737,0.08652 4.40443,0.125841 l 0,-1.219084 c -2.59547,0 -3.06737,0 -3.06737,-1.753908 l 0,-7.21226 c 0,-4.081966 2.83142,-6.268452 5.34824,-6.268452 2.43816,0 2.83142,2.115701 2.83142,4.349377 l 0,9.131335 c 0,1.753908 -0.39326,1.753908 -3.06738,1.753908 l 0,1.219084 c 1.41571,-0.03932 3.38198,-0.125841 4.48309,-0.125841 1.02246,0 3.06737,0.08652 4.40443,0.125841 l 0,-1.219084 c -2.04491,0 -3.06737,0 -3.06737,-1.179759 l 0,-7.479672 c 0,-3.366245 0,-4.585329 -1.25841,-5.98531 -0.55056,-0.676395 -1.80897,-1.455036 -4.08983,-1.455036 -2.83142,0 -4.71904,1.690988 -5.82015,4.105561 l 0,-4.105561 -5.50554,0.432578 0,1.219084 c 2.75277,0 3.06738,0.267412 3.06738,2.186487 z"
       inkscape:connector-curvature="0"
       style="font-style:normal;font-variant:normal;font-weight:normal;font-stretch:normal;letter-spacing:normal;word-spacing:normal;text-anchor:start;display:inline;fill:#000000;fill-opacity:1;fill-rule:evenodd;stroke:#000000;stroke-width:0;stroke-linecap:butt;stroke-linejoin:miter;stroke-miterlimit:10.43299961;stroke-dasharray:none;stroke-dashoffset:0;stroke-opacity:1" />
    <path
       id="path5248"
       d="m 201.19302,94.653654 0,-0.0236 0,-0.01573 0,-0.02359 0,-0.03146 0,-0.03146 0,-0.03933 0,-0.03933 0,-0.04719 0,-0.03933 0,-0.05505 0,-0.04719 0.0786,-0.05506 0,-0.05505 0,-0.06292 0,-0.06292 0,-0.06292 0,-0.06292 0.0787,-0.06292 0,-0.07079 0,-0.07079 0,-0.07079 0.0787,-0.07079 0,-0.07079 0.0786,-0.07865 0,-0.07078 0.0787,-0.07865 0,-0.07079 0.0787,-0.07865 0,-0.07079 0.0786,-0.07865 0.0787,-0.07079 0.0786,-0.07865 c 1.49437,1.093243 3.06738,1.219084 3.85388,1.219084 l 0,-0.896617 c -3.46062,0 -3.46062,-3.924665 -3.46062,-4.829146 0,-1.061784 0.0786,-2.312328 0.6292,-3.27973 0.39325,-0.479769 1.25841,-1.573012 2.83142,-1.573012 3.38198,0 3.38198,3.916799 3.38198,4.813416 0,1.053918 0,2.312328 -0.62921,3.29546 -0.3146,0.464039 -1.17975,1.573012 -2.75277,1.573012 l 0,0 0,0.896617 c 3.61793,0 6.3707,-2.705581 6.3707,-5.725763 0,-1.455036 -0.6292,-2.902207 -1.65166,-3.798824 1.41571,-1.329195 2.83142,-1.525822 3.53928,-1.525822 0.0787,0 0.3146,0 0.39325,0.03933 -0.4719,0.157301 -0.62921,0.589879 -0.62921,1.053918 0,0.66853 0.55056,1.132568 1.10111,1.132568 0.39326,0 1.17976,-0.267412 1.17976,-1.164029 0,-0.66853 -0.4719,-1.919074 -2.04491,-1.919074 -0.78651,0 -2.43817,0.228086 -4.08984,1.832559 -1.65166,-1.28987 -3.30332,-1.407846 -4.16848,-1.407846 -3.61792,0 -6.3707,2.70558 -6.3707,5.717898 0,1.722448 0.86516,3.21681 1.88762,4.042641 -0.55055,0.582014 -1.25841,1.879749 -1.25841,3.248269 0,1.21122 0.55055,2.697716 1.73031,3.484222 -2.35952,0.66853 -3.61792,2.351655 -3.61792,3.924665 0,2.81569 3.93253,4.97858 8.65156,4.97858 l 0.0787,-0.89662 c -3.93253,0 -6.6853,-2.00559 -6.6853,-4.08196 0,-1.80896 1.49436,-3.256135 3.22468,-3.366246 l 2.28086,0 c 3.38198,0 7.78641,0 7.78641,3.366246 0,2.1157 -2.75277,4.08196 -6.60665,4.08196 l 0,0 -0.0787,0.89662 c 4.64039,0 8.73022,-2.00559 8.73022,-5.05723 0,-1.37639 -0.55056,-3.374112 -2.51682,-4.467355 -2.12357,-1.093243 -4.40444,-1.093243 -6.76395,-1.093243 -1.02246,0 -2.67412,0 -2.91008,-0.03933 -1.2584,-0.157301 -2.12356,-1.376385 -2.12356,-2.626929 z"
       inkscape:connector-curvature="0"
       style="font-style:normal;font-variant:normal;font-weight:normal;font-stretch:normal;letter-spacing:normal;word-spacing:normal;text-anchor:start;display:inline;fill:#000000;fill-opacity:1;fill-rule:evenodd;stroke:#000000;stroke-width:0;stroke-linecap:butt;stroke-linejoin:miter;stroke-miterlimit:10.43299961;stroke-dasharray:none;stroke-dashoffset:0;stroke-opacity:1" />
    <path
       id="path5250"
       d="m 254.36082,87.040276 0.0786,0 0.1573,0 0.0786,0 0.0787,-0.0079 0.0787,0 0,-0.0079 0.0787,-0.0079 0.0787,-0.0079 0.0786,-0.0079 0,-0.0079 0.0787,-0.01573 0.0787,-0.01573 0,-0.01573 0.0786,-0.01573 0,-0.0236 0.0787,-0.0236 0,-0.03146 0.0787,-0.0236 0,-0.03932 0.0786,-0.03146 0,-0.03932 0,-0.0236 0.0787,-0.02359 0,-0.01573 0,-0.0236 0,-0.02359 0,-0.03146 0,-0.0236 0,-0.03146 0.0786,-0.02359 0,-0.03146 0,-0.03146 0,-0.03146 0,-0.03146 0,-0.03146 0,-0.03146 0,-0.03932 c 0,-0.786506 -0.7865,-0.786506 -1.25841,-0.786506 l -23.51653,0 c -0.55055,0 -1.25841,0 -1.25841,0.786506 0,0.770776 0.70786,0.770776 1.33706,0.770776 z"
       inkscape:connector-curvature="0"
       style="font-style:normal;font-variant:normal;font-weight:normal;font-stretch:normal;letter-spacing:normal;word-spacing:normal;text-anchor:start;display:inline;fill:#000000;fill-opacity:1;fill-rule:evenodd;stroke:#000000;stroke-width:0;stroke-linecap:butt;stroke-linejoin:miter;stroke-miterlimit:10.43299961;stroke-dasharray:none;stroke-dashoffset:0;stroke-opacity:1" />
    <path
       id="path5252"
       d="m 254.43947,94.653654 0,0 0.0787,0 0.0787,-0.0079 0.1573,0 0,0 0.0787,-0.0079 0.0787,-0.0079 0,0 0.0787,-0.0079 0.0786,-0.01573 0,-0.0079 0.0787,-0.01573 0.0787,-0.01573 0,-0.01573 0.0786,-0.01573 0,-0.0236 0.0787,-0.0236 0.0787,-0.03146 0,-0.03146 0,-0.03146 0.0786,-0.03933 0,-0.01573 0,-0.0236 0,-0.01573 0.0787,-0.0236 0,-0.0236 0,-0.0236 0,-0.0236 0,-0.0236 0,-0.03146 0,-0.0236 0.0786,-0.03146 0,-0.03146 0,-0.03146 0,-0.03146 0,-0.03146 0,-0.03146 0,-0.03932 0,-0.03146 c 0,-0.786506 -0.7865,-0.786506 -1.33706,-0.786506 l -23.35923,0 c -0.6292,0 -1.33706,0 -1.33706,0.786506 0,0.786506 0.70786,0.786506 1.25841,0.786506 z"
       inkscape:connector-curvature="0"
       style="font-style:normal;font-variant:normal;font-weight:normal;font-stretch:normal;letter-spacing:normal;word-spacing:normal;text-anchor:start;display:inline;fill:#000000;fill-opacity:1;fill-rule:evenodd;stroke:#000000;stroke-width:0;stroke-linecap:butt;stroke-linejoin:miter;stroke-miterlimit:10.43299961;stroke-dasharray:none;stroke-dashoffset:0;stroke-opacity:1" />
    <path
       id="path5254"
       d="m 275.28188,90.799774 0.0787,-0.817966 c 0.23595,-5.835874 3.46063,-6.811141 4.79769,-6.811141 4.08983,0 4.48308,5.28532 4.48308,6.811141 l -9.28077,0 -0.0787,0.817966 10.93243,0 c 0.86516,0 0.94381,0 0.94381,-0.817966 0,-3.869609 -2.04492,-7.668433 -6.9999,-7.668433 -4.48309,0 -8.10102,4.026911 -8.10102,8.934708 0,5.245995 4.08984,9.044817 8.57292,9.044817 4.79769,0 6.528,-4.349377 6.528,-5.088692 0,-0.393253 -0.23595,-0.479769 -0.4719,-0.479769 -0.31461,0 -0.39326,0.235952 -0.47191,0.550554 -1.41571,4.034776 -4.95499,4.034776 -5.34824,4.034776 -1.96626,0 -3.46062,-1.171894 -4.40443,-2.619065 -1.17976,-1.879749 -1.17976,-4.475219 -1.17976,-5.89093 z"
       inkscape:connector-curvature="0"
       style="font-style:normal;font-variant:normal;font-weight:normal;font-stretch:normal;letter-spacing:normal;word-spacing:normal;text-anchor:start;display:inline;fill:#000000;fill-opacity:1;fill-rule:evenodd;stroke:#000000;stroke-width:0;stroke-linecap:butt;stroke-linejoin:miter;stroke-miterlimit:10.43299961;stroke-dasharray:none;stroke-dashoffset:0;stroke-opacity:1" />
    <path
       id="path5256"
       d="m 292.58501,86.379611 0,10.50772 c 0,1.753908 -0.39325,1.753908 -3.06737,1.753908 l 0,1.219084 c 1.41571,-0.03932 3.38197,-0.125841 4.48308,-0.125841 1.02246,0 3.06737,0.08652 4.40443,0.125841 l 0,-1.219084 c -2.67412,0 -3.06737,0 -3.06737,-1.753908 l 0,-7.21226 c 0,-4.081966 2.75277,-6.268452 5.26959,-6.268452 2.43817,0 2.91007,2.115701 2.91007,4.349377 l 0,9.131335 c 0,1.753908 -0.4719,1.753908 -3.06737,1.753908 l 0,1.219084 c 1.33706,-0.03932 3.38198,-0.125841 4.40443,-0.125841 1.02246,0 3.06738,0.08652 4.40444,0.125841 l 0,-1.219084 c -2.04492,0 -2.98873,0 -3.06738,-1.179759 l 0,-7.479672 c 0,-3.366245 0,-4.585329 -1.17976,-5.98531 -0.55055,-0.676395 -1.88761,-1.455036 -4.08983,-1.455036 -2.91007,0 -4.71903,1.690988 -5.82014,4.105561 l 0,-4.105561 -5.58419,0.432578 0,1.219084 c 2.75277,0 3.06737,0.267412 3.06737,2.186487 z"
       inkscape:connector-curvature="0"
       style="font-style:normal;font-variant:normal;font-weight:normal;font-stretch:normal;letter-spacing:normal;word-spacing:normal;text-anchor:start;display:inline;fill:#000000;fill-opacity:1;fill-rule:evenodd;stroke:#000000;stroke-width:0;stroke-linecap:butt;stroke-linejoin:miter;stroke-miterlimit:10.43299961;stroke-dasharray:none;stroke-dashoffset:0;stroke-opacity:1" />
    <path
       id="path5258"
       d="m 314.44988,90.799774 0.0786,-0.817966 c 0.1573,-5.835874 3.46062,-6.811141 4.79768,-6.811141 4.08983,0 4.48309,5.28532 4.48309,6.811141 l -9.28077,0 -0.0786,0.817966 10.93243,0 c 0.86515,0 1.02246,0 1.02246,-0.817966 0,-3.869609 -2.12357,-7.668433 -7.07856,-7.668433 -4.48308,0 -8.10101,4.026911 -8.10101,8.934708 0,5.245995 4.08983,9.044817 8.57292,9.044817 4.79768,0 6.60665,-4.349377 6.60665,-5.088692 0,-0.393253 -0.31461,-0.479769 -0.55056,-0.479769 -0.3146,0 -0.39325,0.235952 -0.4719,0.550554 -1.41571,4.034776 -4.95499,4.034776 -5.34824,4.034776 -1.96627,0 -3.46063,-1.171894 -4.40444,-2.619065 -1.17975,-1.879749 -1.17975,-4.475219 -1.17975,-5.89093 z"
       inkscape:connector-curvature="0"
       style="font-style:normal;font-variant:normal;font-weight:normal;font-stretch:normal;letter-spacing:normal;word-spacing:normal;text-anchor:start;display:inline;fill:#000000;fill-opacity:1;fill-rule:evenodd;stroke:#000000;stroke-width:0;stroke-linecap:butt;stroke-linejoin:miter;stroke-miterlimit:10.43299961;stroke-dasharray:none;stroke-dashoffset:0;stroke-opacity:1" />
    <path
       id="path5260"
       d="m 334.03387,86.84365 0,-4.302188 -5.50554,0.432578 0,1.219084 c 2.75277,0 3.06738,0.267412 3.06738,2.186487 l 0,10.50772 c 0,1.753908 -0.39326,1.753908 -3.06738,1.753908 l 0,1.219084 c 1.57301,-0.03932 3.38198,-0.125841 4.48309,-0.125841 1.57301,0 3.46062,0 5.03363,0.125841 l 0,-1.219084 -0.86515,0 c -2.91007,0 -2.98873,-0.424713 -2.98873,-1.840424 l 0,-6.032501 c 0,-3.869609 1.65167,-7.361695 4.64039,-7.361695 0.23595,0 0.3146,0 0.4719,0.03932 -0.1573,0.03146 -0.9438,0.503364 -0.9438,1.517956 0,1.108974 0.7865,1.683123 1.73031,1.683123 0.6292,0 1.65166,-0.464038 1.65166,-1.714583 0,-1.258409 -1.17976,-2.390978 -2.91007,-2.390978 -2.83142,0 -4.24713,2.619065 -4.79769,4.302188 z"
       inkscape:connector-curvature="0"
       style="font-style:normal;font-variant:normal;font-weight:normal;font-stretch:normal;letter-spacing:normal;word-spacing:normal;text-anchor:start;display:inline;fill:#000000;fill-opacity:1;fill-rule:evenodd;stroke:#000000;stroke-width:0;stroke-linecap:butt;stroke-linejoin:miter;stroke-miterlimit:10.43299961;stroke-dasharray:none;stroke-dashoffset:0;stroke-opacity:1" />
    <path
       id="path5262"
       d="m 347.01122,94.653654 0,-0.0236 0,-0.01573 0,-0.02359 0,-0.03146 0,-0.03146 0,-0.03933 0,-0.03933 0,-0.04719 0,-0.03933 0,-0.05505 0,-0.04719 0,-0.05506 0.0786,-0.05505 0,-0.06292 0,-0.06292 0,-0.06292 0,-0.06292 0,-0.06292 0.0787,-0.07079 0,-0.07079 0,-0.07079 0.0786,-0.07079 0,-0.07079 0.0786,-0.07865 0,-0.07078 0.0787,-0.07865 0,-0.07079 0.0787,-0.07865 0,-0.07079 0.0787,-0.07865 0.0786,-0.07079 0,-0.07865 c 1.57301,1.093243 3.14602,1.219084 3.93253,1.219084 l 0,-0.896617 c -3.46063,0 -3.46063,-3.924665 -3.46063,-4.829146 0,-1.061784 0.0786,-2.312328 0.6292,-3.27973 0.31461,-0.479769 1.25841,-1.573012 2.83143,-1.573012 3.38197,0 3.38197,3.916799 3.38197,4.813416 0,1.053918 0,2.312328 -0.6292,3.29546 -0.31461,0.464039 -1.17976,1.573012 -2.75277,1.573012 l 0,0 0,0.896617 c 3.61792,0 6.29204,-2.705581 6.29204,-5.725763 0,-1.455036 -0.6292,-2.902207 -1.57301,-3.798824 1.41571,-1.329195 2.83142,-1.525822 3.53928,-1.525822 0.0787,0 0.23595,0 0.39325,0.03933 -0.4719,0.157301 -0.6292,0.589879 -0.6292,1.053918 0,0.66853 0.4719,1.132568 1.10111,1.132568 0.39325,0 1.17975,-0.267412 1.17975,-1.164029 0,-0.66853 -0.4719,-1.919074 -2.04491,-1.919074 -0.78651,0 -2.51682,0.228086 -4.08983,1.832559 -1.65166,-1.28987 -3.30333,-1.407846 -4.16848,-1.407846 -3.69658,0 -6.3707,2.70558 -6.3707,5.717898 0,1.722448 0.86515,3.21681 1.80896,4.042641 -0.4719,0.582014 -1.17976,1.879749 -1.17976,3.248269 0,1.21122 0.47191,2.697716 1.73032,3.484222 -2.35952,0.66853 -3.61793,2.351655 -3.61793,3.924665 0,2.81569 3.85388,4.97858 8.65156,4.97858 l 0.0787,-0.89662 c -4.01118,0 -6.6853,-2.00559 -6.6853,-4.08196 0,-1.80896 1.49437,-3.256135 3.22468,-3.366246 l 2.28087,0 c 3.38197,0 7.7864,0 7.7864,3.366246 0,2.1157 -2.75277,4.08196 -6.60665,4.08196 l 0,0 -0.0787,0.89662 c 4.64039,0 8.73022,-2.00559 8.73022,-5.05723 0,-1.37639 -0.55055,-3.374112 -2.59547,-4.467355 -2.04492,-1.093243 -4.32578,-1.093243 -6.6853,-1.093243 -1.02246,0 -2.67412,0 -2.98872,-0.03933 -1.25841,-0.157301 -2.04492,-1.376385 -2.04492,-2.626929 z"
       inkscape:connector-curvature="0"
       style="font-style:normal;font-variant:normal;font-weight:normal;font-stretch:normal;letter-spacing:normal;word-spacing:normal;text-anchor:start;display:inline;fill:#000000;fill-opacity:1;fill-rule:evenodd;stroke:#000000;stroke-width:0;stroke-linecap:butt;stroke-linejoin:miter;stroke-miterlimit:10.43299961;stroke-dasharray:none;stroke-dashoffset:0;stroke-opacity:1" />
    <path
       id="path5264"
       d="m 369.42664,82.541462 -5.50554,0.432578 0,1.219084 c 2.59547,0 2.91007,0.235952 2.91007,2.147162 l 0,10.547045 c 0,1.753908 -0.39325,1.753908 -3.06737,1.753908 l 0,1.219084 c 1.25841,-0.03932 3.38197,-0.125841 4.32578,-0.125841 1.33706,0 2.75277,0.08652 4.08983,0.125841 l 0,-1.219084 c -2.59547,0 -2.75277,-0.196627 -2.75277,-1.714583 z"
       inkscape:connector-curvature="0"
       style="font-style:normal;font-variant:normal;font-weight:normal;font-stretch:normal;letter-spacing:normal;word-spacing:normal;text-anchor:start;display:inline;fill:#000000;fill-opacity:1;fill-rule:evenodd;stroke:#000000;stroke-width:0;stroke-linecap:butt;stroke-linejoin:miter;stroke-miterlimit:10.43299961;stroke-dasharray:none;stroke-dashoffset:0;stroke-opacity:1" />
    <path
       id="path5266"
       d="m 369.58394,75.722455 0,-0.11011 0,-0.117976 0,-0.110111 -0.0786,-0.110111 0,-0.102246 0,-0.102246 -0.0787,-0.102245 0,-0.09438 -0.0786,-0.09438 0,-0.08652 -0.0786,-0.09438 -0.0787,-0.07865 -0.0786,-0.07865 0,-0.07865 -0.0786,-0.07865 -0.0787,-0.06292 -0.0786,-0.07079 -0.0786,-0.06292 -0.0787,-0.05506 -0.0786,-0.05505 -0.0787,-0.05505 -0.0786,-0.04719 -0.0786,-0.03933 -0.1573,-0.03932 -0.0786,-0.03146 -0.0787,-0.03146 -0.0786,-0.0236 -0.0786,-0.0236 -0.1573,-0.01573 -0.0786,-0.0079 -0.0786,-0.0079 -0.1573,-0.0079 c -1.17976,0 -2.04492,1.061783 -2.04492,2.076375 0,1.061783 0.86516,2.076376 2.04492,2.076376 1.1011,0 2.12356,-0.817966 2.12356,-2.076376 z"
       inkscape:connector-curvature="0"
       style="font-style:normal;font-variant:normal;font-weight:normal;font-stretch:normal;letter-spacing:normal;word-spacing:normal;text-anchor:start;display:inline;fill:#000000;fill-opacity:1;fill-rule:evenodd;stroke:#000000;stroke-width:0;stroke-linecap:butt;stroke-linejoin:miter;stroke-miterlimit:10.43299961;stroke-dasharray:none;stroke-dashoffset:0;stroke-opacity:1" />
    <path
       id="path5268"
       d="m 404.89806,91.47617 0,-0.464039 0,-0.464038 -0.0786,-0.456174 -0.0787,-0.448308 -0.0786,-0.440444 -0.1573,-0.432578 -0.1573,-0.424713 -0.15731,-0.416848 -0.1573,-0.401118 -0.1573,-0.393253 -0.23595,-0.385388 -0.23595,-0.369658 -0.23595,-0.361793 -0.23596,-0.346062 -0.3146,-0.338198 -0.23595,-0.314602 -0.3146,-0.306738 -0.3146,-0.291007 -0.31461,-0.275277 -0.39325,-0.251682 -0.3146,-0.243817 -0.39325,-0.220221 -0.31461,-0.204492 -0.39325,-0.188761 -0.39325,-0.165167 -0.39326,-0.141571 -0.4719,-0.125841 -0.39325,-0.102245 -0.39326,-0.08652 -0.4719,-0.05505 -0.39325,-0.03933 -0.47191,-0.0079 0,0.857291 c 1.65167,0 3.38198,0.865156 4.40444,2.548279 1.02246,1.683123 1.02246,3.956125 1.02246,5.442621 0,1.407846 0,3.523547 -0.86516,5.245995 -0.86516,1.769638 -2.59547,2.902207 -4.56174,2.902207 l 0,0 c -1.65166,0 -3.38197,-0.825831 -4.48308,-2.619065 -0.94381,-1.730313 -0.94381,-4.121291 -0.94381,-5.529137 0,-1.525821 0,-3.641522 0.94381,-5.371835 1.02246,-1.793234 2.91007,-2.619065 4.48308,-2.619065 l 0,-0.857291 c -4.87633,0 -8.73021,4.262862 -8.73021,9.162794 0,5.057233 4.08983,8.816739 8.73021,8.816739 4.71904,0 8.65157,-3.838157 8.65157,-8.816739 z"
       inkscape:connector-curvature="0"
       style="font-style:normal;font-variant:normal;font-weight:normal;font-stretch:normal;letter-spacing:normal;word-spacing:normal;text-anchor:start;display:inline;fill:#000000;fill-opacity:1;fill-rule:evenodd;stroke:#000000;stroke-width:0;stroke-linecap:butt;stroke-linejoin:miter;stroke-miterlimit:10.43299961;stroke-dasharray:none;stroke-dashoffset:0;stroke-opacity:1" />
    <path
       id="path5270"
       d="m 410.2463,94.653654 0,-0.0236 0,-0.01573 0,-0.02359 0,-0.03146 0,-0.03146 0,-0.03933 0,-0.03933 0,-0.04719 0,-0.03933 0,-0.05505 0,-0.04719 0,-0.05506 0,-0.05505 0.0787,-0.06292 0,-0.06292 0,-0.06292 0,-0.06292 0,-0.06292 0.0786,-0.07079 0,-0.07079 0,-0.07079 0.0786,-0.07079 0,-0.07079 0,-0.07865 0.0787,-0.07078 0,-0.07865 0.0786,-0.07079 0.0786,-0.07865 0,-0.07079 0.0787,-0.07865 0.0786,-0.07079 0,-0.07865 c 1.57302,1.093243 3.14603,1.219084 3.93253,1.219084 l 0,-0.896617 c -3.46062,0 -3.46062,-3.924665 -3.46062,-4.829146 0,-1.061784 0.0787,-2.312328 0.6292,-3.27973 0.31461,-0.479769 1.25841,-1.573012 2.83142,-1.573012 3.38198,0 3.38198,3.916799 3.38198,4.813416 0,1.053918 0,2.312328 -0.6292,3.29546 -0.31461,0.464039 -1.25841,1.573012 -2.75278,1.573012 l 0,0 0,0.896617 c 3.61793,0 6.29205,-2.705581 6.29205,-5.725763 0,-1.455036 -0.6292,-2.902207 -1.57301,-3.798824 1.41571,-1.329195 2.83142,-1.525822 3.53928,-1.525822 0.0786,0 0.23595,0 0.39325,0.03933 -0.4719,0.157301 -0.6292,0.589879 -0.6292,1.053918 0,0.66853 0.4719,1.132568 1.1011,1.132568 0.39326,0 1.17976,-0.267412 1.17976,-1.164029 0,-0.66853 -0.4719,-1.919074 -2.04491,-1.919074 -0.78651,0 -2.51682,0.228086 -4.08983,1.832559 -1.65167,-1.28987 -3.30333,-1.407846 -4.16849,-1.407846 -3.69657,0 -6.37069,2.70558 -6.37069,5.717898 0,1.722448 0.86515,3.21681 1.80896,4.042641 -0.4719,0.582014 -1.17976,1.879749 -1.17976,3.248269 0,1.21122 0.4719,2.697716 1.73031,3.484222 -2.35951,0.66853 -3.61792,2.351655 -3.61792,3.924665 0,2.81569 3.85388,4.97858 8.65156,4.97858 l 0.0786,-0.89662 c -4.01118,0 -6.6853,-2.00559 -6.6853,-4.08196 0,-1.80896 1.49436,-3.256135 3.22468,-3.366246 l 2.28086,0 c 3.38198,0 7.78641,0 7.78641,3.366246 0,2.1157 -2.75277,4.08196 -6.60665,4.08196 l 0,0 -0.0786,0.89662 c 4.64039,0 8.73022,-2.00559 8.73022,-5.05723 0,-1.37639 -0.55056,-3.374112 -2.59547,-4.467355 -2.04492,-1.093243 -4.32578,-1.093243 -6.6853,-1.093243 -1.02246,0 -2.67412,0 -2.98872,-0.03933 -1.25841,-0.157301 -2.04492,-1.376385 -2.04492,-2.626929 z"
       inkscape:connector-curvature="0"
       style="font-style:normal;font-variant:normal;font-weight:normal;font-stretch:normal;letter-spacing:normal;word-spacing:normal;text-anchor:start;display:inline;fill:#000000;fill-opacity:1;fill-rule:evenodd;stroke:#000000;stroke-width:0;stroke-linecap:butt;stroke-linejoin:miter;stroke-miterlimit:10.43299961;stroke-dasharray:none;stroke-dashoffset:0;stroke-opacity:1" />
    <path
       id="path5272"
       d="m 277.72005,143.88893 0,-12.4268 -5.66285,0.43258 0,1.21908 c 2.75278,0 3.06738,0.26742 3.06738,2.19436 l 0,23.35136 0.94381,0 c 0.0786,-0.0393 0.39325,-0.58988 1.41571,-2.43031 0.6292,0.90449 2.28086,2.86289 5.11228,2.86289 l -0.1573,-0.86516 c -1.73031,0 -3.14602,-0.94381 -4.08983,-2.39098 -0.55055,-0.82583 -0.55055,-0.93594 -0.55055,-1.63593 l 0,0 0,-8.07742 c 0,-0.74718 0,-0.7865 0.4719,-1.40784 1.49436,-2.20222 3.69658,-2.50896 4.56174,-2.50896 1.80896,0 3.22467,1.0146 4.16848,2.50896 1.02246,1.60447 1.10111,3.83028 1.10111,5.44262 0,1.44717 -0.0787,3.79882 -1.17976,5.56846 -0.86516,1.21122 -2.35952,2.50109 -4.48309,2.50109 l 0.1573,0.86516 c 4.71904,0 8.80887,-3.83815 8.80887,-8.90325 0,-4.97072 -3.85388,-8.84819 -8.33696,-8.84819 -3.06738,0 -4.71904,1.84829 -5.34824,2.54828 z"
       inkscape:connector-curvature="0"
       style="font-style:normal;font-variant:normal;font-weight:normal;font-stretch:normal;letter-spacing:normal;word-spacing:normal;text-anchor:start;display:inline;fill:#000000;fill-opacity:1;fill-rule:evenodd;stroke:#000000;stroke-width:0;stroke-linecap:butt;stroke-linejoin:miter;stroke-miterlimit:10.43299961;stroke-dasharray:none;stroke-dashoffset:0;stroke-opacity:1" />
    <path
       id="path5274"
       d="m 298.24785,149.59896 0,-0.81797 c 0.23595,-5.83587 3.53928,-6.81114 4.87634,-6.81114 4.08983,0 4.48308,5.28532 4.48308,6.81114 l -9.35942,0 0,0.81797 10.93244,0 c 0.86515,0 0.9438,0 0.9438,-0.81797 0,-3.86961 -2.12356,-7.66843 -6.9999,-7.66843 -4.56173,0 -8.10101,4.02691 -8.10101,8.93471 0,5.24599 4.08983,9.04482 8.57291,9.04482 4.79769,0 6.528,-4.34938 6.528,-5.0887 0,-0.39325 -0.3146,-0.47977 -0.4719,-0.47977 -0.39325,0 -0.4719,0.23596 -0.55055,0.55056 -1.33707,4.03477 -4.87634,4.03477 -5.26959,4.03477 -1.96627,0 -3.53928,-1.17189 -4.40444,-2.61906 -1.17976,-1.87975 -1.17976,-4.47522 -1.17976,-5.89093 z"
       inkscape:connector-curvature="0"
       style="font-style:normal;font-variant:normal;font-weight:normal;font-stretch:normal;letter-spacing:normal;word-spacing:normal;text-anchor:start;display:inline;fill:#000000;fill-opacity:1;fill-rule:evenodd;stroke:#000000;stroke-width:0;stroke-linecap:butt;stroke-linejoin:miter;stroke-miterlimit:10.43299961;stroke-dasharray:none;stroke-dashoffset:0;stroke-opacity:1" />
    <path
       id="path5276"
       d="m 327.58452,145.61137 0,-0.0865 0,-0.0944 0.0787,-0.0944 0,-0.0944 0.0787,-0.10224 0.0786,-0.10225 0,-0.10224 0.0786,-0.11011 0.0787,-0.11012 0.0786,-0.10224 0,-0.11011 0.0786,-0.11011 0.0787,-0.10225 0.0786,-0.11011 0.1573,-0.10224 0.0786,-0.10225 0.0786,-0.10225 0.1573,-0.0944 0.0786,-0.0944 0.15731,-0.0865 0.0787,-0.0865 0.1573,-0.0787 0.1573,-0.0786 0.1573,-0.0629 0.1573,-0.0629 0.1573,-0.0629 0.23595,-0.0472 0.15731,-0.0393 0.23595,-0.0393 0.0786,-0.0157 0.1573,-0.008 0.0786,-0.008 0.0786,-0.008 0.1573,-0.008 0.1573,0 0,-1.21908 c -0.9438,0.0708 -2.04491,0.11011 -2.98872,0.11011 -0.94381,0 -2.75277,-0.0708 -3.38198,-0.11011 l 0,1.21908 c 1.41571,0.0315 1.88762,0.93595 1.88762,1.68313 0,0.34606 -0.0786,0.50336 -0.23595,0.93594 l -4.01118,9.98862 -4.40444,-10.92456 c -0.23595,-0.5191 -0.23595,-0.58988 -0.23595,-0.6764 0,-1.00673 1.57301,-1.00673 2.20222,-1.00673 l 0,-1.21908 c -1.10111,0.0393 -3.30333,0.11011 -4.24713,0.11011 -1.02246,0 -2.59547,-0.0393 -3.77523,-0.11011 l 0,1.21908 c 2.43817,0 2.59547,0.22809 3.14602,1.44717 l 5.58419,13.89756 c 0.23595,0.55842 0.31461,0.75505 0.86516,0.75505 0.4719,0 0.6292,-0.36179 0.78651,-0.75505 z"
       inkscape:connector-curvature="0"
       style="font-style:normal;font-variant:normal;font-weight:normal;font-stretch:normal;letter-spacing:normal;word-spacing:normal;text-anchor:start;display:inline;fill:#000000;fill-opacity:1;fill-rule:evenodd;stroke:#000000;stroke-width:0;stroke-linecap:butt;stroke-linejoin:miter;stroke-miterlimit:10.43299961;stroke-dasharray:none;stroke-dashoffset:0;stroke-opacity:1" />
    <path
       id="path5278"
       d="m 335.13498,149.59896 0,-0.81797 c 0.3146,-5.83587 3.53928,-6.81114 4.87634,-6.81114 4.08983,0 4.48308,5.28532 4.48308,6.81114 l -9.35942,0 0,0.81797 10.93243,0 c 0.86516,0 0.94381,0 0.94381,-0.81797 0,-3.86961 -2.04491,-7.66843 -6.9999,-7.66843 -4.48309,0 -8.10101,4.02691 -8.10101,8.93471 0,5.24599 4.08983,9.04482 8.57291,9.04482 4.79769,0 6.528,-4.34938 6.528,-5.0887 0,-0.39325 -0.23595,-0.47977 -0.4719,-0.47977 -0.39325,0 -0.39325,0.23596 -0.47191,0.55056 -1.41571,4.03477 -4.95498,4.03477 -5.34824,4.03477 -1.96626,0 -3.53927,-1.17189 -4.40443,-2.61906 -1.17976,-1.87975 -1.17976,-4.47522 -1.17976,-5.89093 z"
       inkscape:connector-curvature="0"
       style="font-style:normal;font-variant:normal;font-weight:normal;font-stretch:normal;letter-spacing:normal;word-spacing:normal;text-anchor:start;display:inline;fill:#000000;fill-opacity:1;fill-rule:evenodd;stroke:#000000;stroke-width:0;stroke-linecap:butt;stroke-linejoin:miter;stroke-miterlimit:10.43299961;stroke-dasharray:none;stroke-dashoffset:0;stroke-opacity:1" />
    <path
       id="path5280"
       d="m 352.28081,153.44497 0,-0.0157 0,-0.0157 0,-0.0315 0,-0.0236 0,-0.0393 0,-0.0315 0,-0.0393 0.0786,-0.0472 0,-0.0472 0,-0.0472 0,-0.0472 0,-0.055 0,-0.0629 0,-0.0551 0,-0.0629 0,-0.0629 0.0787,-0.0629 0,-0.0708 0,-0.0629 0,-0.0708 0.0786,-0.0708 0,-0.0708 0.0786,-0.0786 0,-0.0708 0,-0.0708 0.0787,-0.0787 0,-0.0787 0.0787,-0.0708 0.0786,-0.0787 0,-0.0708 0.0786,-0.0787 0.0786,-0.0708 c 1.49436,1.09325 3.14602,1.21909 3.85388,1.21909 3.61792,0 6.37069,-2.70558 6.37069,-5.72577 0,-1.45503 -0.6292,-2.9022 -1.65166,-3.79882 1.41571,-1.32919 2.83142,-1.52582 3.53928,-1.52582 0.0787,0 0.3146,0 0.39325,0.0393 -0.39325,0.1573 -0.6292,0.58988 -0.6292,1.05392 0,0.66853 0.55055,1.13257 1.17976,1.13257 0.39325,0 1.1011,-0.26742 1.1011,-1.1719 0,-0.66066 -0.4719,-1.91121 -1.96626,-1.91121 -0.78651,0 -2.51682,0.22809 -4.16848,1.83256 -1.65166,-1.29773 -3.30333,-1.40784 -4.16848,-1.40784 l 0,0.89661 c 3.38197,0 3.38197,3.92467 3.38197,4.82128 0,1.05392 0,2.31233 -0.6292,3.29546 -0.23595,0.46404 -1.17976,1.57302 -2.75277,1.57302 l 0,0 c -3.38198,0 -3.38198,-3.92467 -3.38198,-4.82915 0,-1.06178 0,-2.31233 0.62921,-3.2876 0.3146,-0.4719 1.17975,-1.57301 2.75277,-1.57301 l 0,-0.89661 c -3.61793,0 -6.3707,2.70558 -6.3707,5.71789 0,1.72245 0.86515,3.21681 1.88761,4.04264 -0.55055,0.57415 -1.25841,1.87975 -1.25841,3.24827 0,1.21122 0.55056,2.69772 1.73032,3.48423 -2.35952,0.66853 -3.61793,2.35165 -3.61793,3.92466 0,2.81569 3.93253,4.97858 8.73021,4.97858 l 0,-0.90448 c -3.93253,0 -6.6853,-1.99772 -6.6853,-4.0741 0,-1.80896 1.49437,-3.25613 3.22468,-3.36625 l 2.35952,0 c 3.38197,0 7.70775,0 7.70775,3.36625 0,2.10784 -2.75277,4.0741 -6.60665,4.0741 l 0,0 0,0.90448 c 4.56174,0 8.65157,-2.00559 8.65157,-5.05723 0,-1.37639 -0.55055,-3.37411 -2.51682,-4.46735 -2.12357,-1.09325 -4.32578,-1.09325 -6.76395,-1.09325 -0.94381,0 -2.67412,0 -2.91007,-0.0393 -1.25841,-0.1573 -2.12357,-1.37638 -2.12357,-2.63479 z"
       inkscape:connector-curvature="0"
       style="font-style:normal;font-variant:normal;font-weight:normal;font-stretch:normal;letter-spacing:normal;word-spacing:normal;text-anchor:start;display:inline;fill:#000000;fill-opacity:1;fill-rule:evenodd;stroke:#000000;stroke-width:0;stroke-linecap:butt;stroke-linejoin:miter;stroke-miterlimit:10.43299961;stroke-dasharray:none;stroke-dashoffset:0;stroke-opacity:1" />
    <path
       id="path5282"
       d="m 372.10076,149.59896 0.0786,-0.81797 c 0.23595,-5.83587 3.53928,-6.81114 4.87634,-6.81114 4.01118,0 4.40443,5.28532 4.40443,6.81114 l -9.28077,0 -0.0786,0.81797 11.01108,0 c 0.78651,0 0.94381,0 0.94381,-0.81797 0,-3.86961 -2.12356,-7.66843 -6.9999,-7.66843 -4.56174,0 -8.17966,4.02691 -8.17966,8.93471 0,5.24599 4.08983,9.04482 8.65156,9.04482 4.79769,0 6.528,-4.34938 6.528,-5.0887 0,-0.39325 -0.3146,-0.47977 -0.55055,-0.47977 -0.3146,0 -0.39326,0.23596 -0.47191,0.55056 -1.41571,4.03477 -4.87633,4.03477 -5.26959,4.03477 -1.96626,0 -3.53927,-1.17189 -4.48308,-2.61906 -1.17976,-1.87975 -1.17976,-4.47522 -1.17976,-5.89093 z"
       inkscape:connector-curvature="0"
       style="font-style:normal;font-variant:normal;font-weight:normal;font-stretch:normal;letter-spacing:normal;word-spacing:normal;text-anchor:start;display:inline;fill:#000000;fill-opacity:1;fill-rule:evenodd;stroke:#000000;stroke-width:0;stroke-linecap:butt;stroke-linejoin:miter;stroke-miterlimit:10.43299961;stroke-dasharray:none;stroke-dashoffset:0;stroke-opacity:1" />
    <path
       id="path5284"
       d="m 392.07801,131.46213 -5.66284,0.43258 0,1.21908 c 2.75277,0 3.06737,0.26742 3.06737,2.19436 l 0,20.37836 c 0,1.75391 -0.39325,1.75391 -3.06737,1.75391 l 0,1.21909 c 1.33706,-0.0393 3.38198,-0.12584 4.40443,-0.12584 0.94381,0 2.91008,0.0865 4.32579,0.12584 l 0,-1.21909 c -2.59547,0 -3.06738,0 -3.06738,-1.75391 z"
       inkscape:connector-curvature="0"
       style="font-style:normal;font-variant:normal;font-weight:normal;font-stretch:normal;letter-spacing:normal;word-spacing:normal;text-anchor:start;display:inline;fill:#000000;fill-opacity:1;fill-rule:evenodd;stroke:#000000;stroke-width:0;stroke-linecap:butt;stroke-linejoin:miter;stroke-miterlimit:10.43299961;stroke-dasharray:none;stroke-dashoffset:0;stroke-opacity:1" />
    <path
       id="path5286"
       d="m 404.11155,151.05399 0.1573,0.0157 0.0787,0.0157 0.0786,0.0236 0.1573,0.0315 0.1573,0.0236 0.0787,0.0393 0.1573,0.0393 0.1573,0.0472 0.1573,0.0472 0.1573,0.0551 0.15731,0.0629 0.23595,0.0629 0.1573,0.0786 0.1573,0.0787 0.1573,0.0865 0.1573,0.0944 0.23595,0.10225 0.1573,0.11798 0.15731,0.11797 0.1573,0.12584 0.1573,0.14157 0.0786,0.14158 0.1573,0.1573 0.1573,0.17303 0.0787,0.17303 0.0786,0.0944 0,0.0944 0.0786,0.0944 0.0787,0.10225 0,0.10224 0.0786,0.11011 0,0.11011 0,0.11011 0.0786,0.11798 0,0.11798 0,0.11797 0,0.12584 0,0.12584 0,0.13371 c 0,1.98986 -1.33706,3.56287 -4.40443,3.56287 -3.30332,0 -4.71903,-2.23368 -5.42689,-5.56846 -0.1573,-0.50336 -0.1573,-0.66067 -0.55055,-0.66067 -0.55056,0 -0.55056,0.26742 -0.55056,0.98314 l 0,5.17521 c 0,0.66066 0,0.93594 0.47191,0.93594 0.1573,0 0.23595,-0.0393 0.9438,-0.78651 0.0786,-0.0786 0.0786,-0.14943 0.78651,-0.89662 1.73031,1.6438 3.53928,1.68313 4.32578,1.68313 4.48309,0 6.29205,-2.6348 6.29205,-5.45049 0,-2.07637 -1.17976,-3.25613 -1.65166,-3.72017 -1.25841,-1.25055 -2.83142,-1.57301 -4.48309,-1.87975 -2.12356,-0.43258 -4.79768,-0.94381 -4.79768,-3.21681 0,-1.36852 1.02245,-2.98086 4.40443,-2.98086 4.32578,0 4.48308,3.53141 4.56173,4.7505 0.0786,0.35393 0.39326,0.35393 0.47191,0.35393 0.55055,0 0.55055,-0.19663 0.55055,-0.94381 l 0,-3.96399 c 0,-0.66067 0,-0.92808 -0.4719,-0.92808 -0.1573,0 -0.23595,0 -0.78651,0.46404 -0.0786,0.1573 -0.4719,0.50336 -0.6292,0.6292 -1.49436,-1.09324 -3.14603,-1.09324 -3.69658,-1.09324 -4.79769,0 -6.29205,2.61907 -6.29205,4.81342 0,1.36852 0.62921,2.46963 1.73032,3.33478 1.2584,1.0146 2.35951,1.25055 5.11228,1.79324 z"
       inkscape:connector-curvature="0"
       style="font-style:normal;font-variant:normal;font-weight:normal;font-stretch:normal;letter-spacing:normal;word-spacing:normal;text-anchor:start;display:inline;fill:#000000;fill-opacity:1;fill-rule:evenodd;stroke:#000000;stroke-width:0;stroke-linecap:butt;stroke-linejoin:miter;stroke-miterlimit:10.43299961;stroke-dasharray:none;stroke-dashoffset:0;stroke-opacity:1" />
    <path
       id="path5288"
       d="m 415.83049,149.59896 0,-0.81797 c 0.23595,-5.83587 3.53928,-6.81114 4.87634,-6.81114 4.08983,0 4.48308,5.28532 4.48308,6.81114 l -9.35942,0 0,0.81797 10.93244,0 c 0.86515,0 0.9438,0 0.9438,-0.81797 0,-3.86961 -2.12356,-7.66843 -6.9999,-7.66843 -4.56174,0 -8.10101,4.02691 -8.10101,8.93471 0,5.24599 4.08983,9.04482 8.57291,9.04482 4.79769,0 6.528,-4.34938 6.528,-5.0887 0,-0.39325 -0.23595,-0.47977 -0.4719,-0.47977 -0.39325,0 -0.39325,0.23596 -0.55056,0.55056 -1.33706,4.03477 -4.87633,4.03477 -5.26959,4.03477 -1.96626,0 -3.53927,-1.17189 -4.40443,-2.61906 -1.17976,-1.87975 -1.17976,-4.47522 -1.17976,-5.89093 z"
       inkscape:connector-curvature="0"
       style="font-style:normal;font-variant:normal;font-weight:normal;font-stretch:normal;letter-spacing:normal;word-spacing:normal;text-anchor:start;display:inline;fill:#000000;fill-opacity:1;fill-rule:evenodd;stroke:#000000;stroke-width:0;stroke-linecap:butt;stroke-linejoin:miter;stroke-miterlimit:10.43299961;stroke-dasharray:none;stroke-dashoffset:0;stroke-opacity:1" />
    <path
       id="path5290"
       d="m 436.9875,151.05399 0.0787,0.0157 0.0786,0.0157 0.1573,0.0236 0.0787,0.0315 0.1573,0.0236 0.1573,0.0393 0.1573,0.0393 0.1573,0.0472 0.1573,0.0472 0.1573,0.0551 0.1573,0.0629 0.1573,0.0629 0.15731,0.0786 0.23595,0.0787 0.1573,0.0865 0.1573,0.0944 0.1573,0.10225 0.1573,0.11798 0.1573,0.11797 0.15731,0.12584 0.1573,0.14157 0.1573,0.14158 0.1573,0.1573 0.0786,0.17303 0.1573,0.17303 0,0.0944 0.0786,0.0944 0.0786,0.0944 0,0.10225 0.0787,0.10224 0,0.11011 0.0786,0.11011 0,0.11011 0,0.11798 0,0.11798 0.0786,0.11797 0,0.12584 0,0.12584 0,0.13371 c 0,1.98986 -1.41571,3.56287 -4.40443,3.56287 -3.30332,0 -4.71904,-2.23368 -5.50554,-5.56846 -0.0786,-0.50336 -0.1573,-0.66067 -0.55056,-0.66067 -0.4719,0 -0.4719,0.26742 -0.4719,0.98314 l 0,5.17521 c 0,0.66066 0,0.93594 0.39325,0.93594 0.23596,0 0.23596,-0.0393 1.02246,-0.78651 0.0786,-0.0786 0.0786,-0.14943 0.78651,-0.89662 1.73031,1.6438 3.46062,1.68313 4.32578,1.68313 4.48308,0 6.29205,-2.6348 6.29205,-5.45049 0,-2.07637 -1.17976,-3.25613 -1.65166,-3.72017 -1.25841,-1.25055 -2.83143,-1.57301 -4.48309,-1.87975 -2.20222,-0.43258 -4.79769,-0.94381 -4.79769,-3.21681 0,-1.36852 1.02246,-2.98086 4.32579,-2.98086 4.32578,0 4.56173,3.53141 4.64038,4.7505 0,0.35393 0.39326,0.35393 0.47191,0.35393 0.4719,0 0.4719,-0.19663 0.4719,-0.94381 l 0,-3.96399 c 0,-0.66067 0,-0.92808 -0.39325,-0.92808 -0.23595,0 -0.31461,0 -0.78651,0.46404 -0.1573,0.1573 -0.55055,0.50336 -0.70785,0.6292 -1.41572,-1.09324 -3.06738,-1.09324 -3.69658,-1.09324 -4.71904,0 -6.2134,2.61907 -6.2134,4.81342 0,1.36852 0.62921,2.46963 1.65166,3.33478 1.25841,1.0146 2.35952,1.25055 5.19094,1.79324 z"
       inkscape:connector-curvature="0"
       style="font-style:normal;font-variant:normal;font-weight:normal;font-stretch:normal;letter-spacing:normal;word-spacing:normal;text-anchor:start;display:inline;fill:#000000;fill-opacity:1;fill-rule:evenodd;stroke:#000000;stroke-width:0;stroke-linecap:butt;stroke-linejoin:miter;stroke-miterlimit:10.43299961;stroke-dasharray:none;stroke-dashoffset:0;stroke-opacity:1" />
    <path
       id="path5292"
       d="m 448.62779,145.1788 0,10.50771 c 0,1.75391 -0.39325,1.75391 -3.06737,1.75391 l 0,1.21909 c 1.41571,-0.0393 3.38197,-0.12584 4.40443,-0.12584 1.02246,0 3.06737,0.0865 4.40443,0.12584 l 0,-1.21909 c -2.59547,0 -3.06737,0 -3.06737,-1.75391 l 0,-7.21225 c 0,-4.08197 2.83142,-6.26846 5.34824,-6.26846 2.43817,0 2.83142,2.1157 2.83142,4.34938 l 0,9.13133 c 0,1.75391 -0.39325,1.75391 -2.98872,1.75391 l 0,1.21909 c 1.33706,-0.0393 3.38198,-0.12584 4.40443,-0.12584 1.02246,0 3.06738,0.0865 4.40444,0.12584 l 0,-1.21909 c -2.67412,0 -3.06738,0 -3.06738,-1.75391 l 0,-7.21225 c 0,-4.08197 2.75277,-6.26846 5.26959,-6.26846 2.51682,0 2.91008,2.1157 2.91008,4.34938 l 0,9.13133 c 0,1.75391 -0.39326,1.75391 -3.06738,1.75391 l 0,1.21909 c 1.41571,-0.0393 3.38198,-0.12584 4.40444,-0.12584 1.02245,0 3.06737,0.0865 4.40443,0.12584 l 0,-1.21909 c -2.04492,0 -2.98872,0 -2.98872,-1.17976 l 0,-7.47967 c 0,-3.36624 0,-4.58533 -1.25841,-5.98531 -0.55056,-0.67639 -1.80897,-1.45503 -4.08983,-1.45503 -3.30333,0 -5.03364,2.35165 -5.66285,3.83815 -0.6292,-3.40558 -3.46062,-3.83815 -5.26959,-3.83815 -2.83142,0 -4.71903,1.68312 -5.74149,4.10556 l 0,-4.10556 -5.58419,0.43257 0,1.21909 c 2.75277,0 3.06737,0.26741 3.06737,2.18649 z"
       inkscape:connector-curvature="0"
       style="font-style:normal;font-variant:normal;font-weight:normal;font-stretch:normal;letter-spacing:normal;word-spacing:normal;text-anchor:start;display:inline;fill:#000000;fill-opacity:1;fill-rule:evenodd;stroke:#000000;stroke-width:0;stroke-linecap:butt;stroke-linejoin:miter;stroke-miterlimit:10.43299961;stroke-dasharray:none;stroke-dashoffset:0;stroke-opacity:1" />
    <path
       id="path5294"
       d="m 481.34644,149.59896 0,-0.81797 c 0.23595,-5.83587 3.53927,-6.81114 4.87633,-6.81114 4.01119,0 4.40444,5.28532 4.40444,6.81114 l -9.28077,0 0,0.81797 10.93243,0 c 0.86516,0 0.94381,0 0.94381,-0.81797 0,-3.86961 -2.12357,-7.66843 -6.99991,-7.66843 -4.56173,0 -8.17966,4.02691 -8.17966,8.93471 0,5.24599 4.16848,9.04482 8.65157,9.04482 4.79768,0 6.528,-4.34938 6.528,-5.0887 0,-0.39325 -0.3146,-0.47977 -0.47191,-0.47977 -0.39325,0 -0.4719,0.23596 -0.55055,0.55056 -1.33706,4.03477 -4.87634,4.03477 -5.26959,4.03477 -1.96626,0 -3.53928,-1.17189 -4.40443,-2.61906 -1.17976,-1.87975 -1.17976,-4.47522 -1.17976,-5.89093 z"
       inkscape:connector-curvature="0"
       style="font-style:normal;font-variant:normal;font-weight:normal;font-stretch:normal;letter-spacing:normal;word-spacing:normal;text-anchor:start;display:inline;fill:#000000;fill-opacity:1;fill-rule:evenodd;stroke:#000000;stroke-width:0;stroke-linecap:butt;stroke-linejoin:miter;stroke-miterlimit:10.43299961;stroke-dasharray:none;stroke-dashoffset:0;stroke-opacity:1" />
    <path
       id="path5296"
       d="m 498.64957,145.1788 0,10.50771 c 0,1.75391 -0.39325,1.75391 -3.06737,1.75391 l 0,1.21909 c 1.41571,-0.0393 3.38197,-0.12584 4.40443,-0.12584 1.02246,0 3.06737,0.0865 4.40443,0.12584 l 0,-1.21909 c -2.59547,0 -3.06737,0 -3.06737,-1.75391 l 0,-7.21225 c 0,-4.08197 2.83142,-6.26846 5.34824,-6.26846 2.43817,0 2.83142,2.1157 2.83142,4.34938 l 0,9.13133 c 0,1.75391 -0.39325,1.75391 -2.98872,1.75391 l 0,1.21909 c 1.33706,-0.0393 3.38197,-0.12584 4.40443,-0.12584 1.02246,0 3.06737,0.0865 4.40444,0.12584 l 0,-1.21909 c -2.04492,0 -3.06738,0 -3.06738,-1.17976 l 0,-7.47967 c 0,-3.36624 0,-4.58533 -1.25841,-5.98531 -0.4719,-0.67639 -1.80896,-1.45503 -4.08983,-1.45503 -2.83142,0 -4.71903,1.68312 -5.82014,4.10556 l 0,-4.10556 -5.50554,0.43257 0,1.21909 c 2.75277,0 3.06737,0.26741 3.06737,2.18649 z"
       inkscape:connector-curvature="0"
       style="font-style:normal;font-variant:normal;font-weight:normal;font-stretch:normal;letter-spacing:normal;word-spacing:normal;text-anchor:start;display:inline;fill:#000000;fill-opacity:1;fill-rule:evenodd;stroke:#000000;stroke-width:0;stroke-linecap:butt;stroke-linejoin:miter;stroke-miterlimit:10.43299961;stroke-dasharray:none;stroke-dashoffset:0;stroke-opacity:1" />
    <path
       id="path5298"
       d="m 520.27848,153.44497 0,-0.0157 0,-0.0157 0,-0.0315 0,-0.0236 0,-0.0393 0,-0.0315 0,-0.0393 0,-0.0472 0,-0.0472 0,-0.0472 0.0786,-0.0472 0,-0.055 0,-0.0629 0,-0.0551 0,-0.0629 0,-0.0629 0,-0.0629 0.0786,-0.0708 0,-0.0629 0,-0.0708 0.0787,-0.0708 0,-0.0708 0,-0.0786 0.0786,-0.0708 0,-0.0708 0.0787,-0.0787 0,-0.0787 0.0786,-0.0708 0,-0.0787 0.0786,-0.0708 0.0787,-0.0787 0.0786,-0.0708 c 1.49436,1.09325 3.06737,1.21909 3.85388,1.21909 3.61792,0 6.3707,-2.70558 6.3707,-5.72577 0,-1.45503 -0.62921,-2.9022 -1.65167,-3.79882 1.41571,-1.32919 2.83142,-1.52582 3.53928,-1.52582 0.0786,0 0.3146,0 0.39325,0.0393 -0.39325,0.1573 -0.6292,0.58988 -0.6292,1.05392 0,0.66853 0.55055,1.13257 1.17976,1.13257 0.39325,0 1.10111,-0.26742 1.10111,-1.1719 0,-0.66066 -0.47191,-1.91121 -1.96627,-1.91121 -0.78651,0 -2.51682,0.22809 -4.16848,1.83256 -1.65166,-1.29773 -3.30333,-1.40784 -4.16848,-1.40784 l 0,0.89661 c 3.38197,0 3.38197,3.92467 3.38197,4.82128 0,1.05392 0,2.31233 -0.6292,3.29546 -0.3146,0.46404 -1.17976,1.57302 -2.75277,1.57302 l 0,0 c -3.38198,0 -3.38198,-3.92467 -3.38198,-4.82915 0,-1.06178 0,-2.31233 0.62921,-3.2876 0.3146,-0.4719 1.17976,-1.57301 2.75277,-1.57301 l 0,-0.89661 c -3.61793,0 -6.3707,2.70558 -6.3707,5.71789 0,1.72245 0.86516,3.21681 1.88761,4.04264 -0.55055,0.57415 -1.25841,1.87975 -1.25841,3.24827 0,1.21122 0.55056,2.69772 1.73032,3.48423 -2.35952,0.66853 -3.61793,2.35165 -3.61793,3.92466 0,2.81569 3.93253,4.97858 8.73022,4.97858 l 0,-0.90448 c -3.93253,0 -6.68531,-1.99772 -6.68531,-4.0741 0,-1.80896 1.49437,-3.25613 3.22468,-3.36625 l 2.35952,0 c 3.30332,0 7.70776,0 7.70776,3.36625 0,2.10784 -2.75278,4.0741 -6.60665,4.0741 l 0,0 0,0.90448 c 4.56173,0 8.65156,-2.00559 8.65156,-5.05723 0,-1.37639 -0.55055,-3.37411 -2.51682,-4.46735 -2.12356,-1.09325 -4.40443,-1.09325 -6.76395,-1.09325 -0.94381,0 -2.67412,0 -2.91007,-0.0393 -1.25841,-0.1573 -2.12357,-1.37638 -2.12357,-2.63479 z"
       inkscape:connector-curvature="0"
       style="font-style:normal;font-variant:normal;font-weight:normal;font-stretch:normal;letter-spacing:normal;word-spacing:normal;text-anchor:start;display:inline;fill:#000000;fill-opacity:1;fill-rule:evenodd;stroke:#000000;stroke-width:0;stroke-linecap:butt;stroke-linejoin:miter;stroke-miterlimit:10.43299961;stroke-dasharray:none;stroke-dashoffset:0;stroke-opacity:1" />
    <path
       id="path5300"
       d="m 550.63761,156.51235 0,2.57974 5.82015,-0.43258 0,-1.21909 c -2.75277,0 -3.06738,-0.26741 -3.06738,-2.18648 l 0,-23.79181 -5.66284,0.43258 0,1.21908 c 2.75277,0 3.06737,0.26742 3.06737,2.19436 l 0,8.45493 c -1.17976,-1.39998 -2.83142,-2.42243 -4.95498,-2.42243 l 0.1573,0.86515 c 1.41571,0 2.98872,0.58988 4.24713,2.34379 0.39325,0.66853 0.39325,0.75505 0.39325,1.45504 l 0,0 0,8.03022 c 0,0.70786 0,0.78651 -0.39325,1.45504 -1.17976,1.87975 -2.98872,2.73704 -4.64039,2.73704 -1.73031,0 -3.14602,-1.01459 -4.08983,-2.50109 -1.02245,-1.61234 -1.17976,-3.85388 -1.17976,-5.45049 0,-1.44717 0.0786,-3.80668 1.25841,-5.56059 0.78651,-1.21909 2.28087,-2.50896 4.40444,-2.50896 l -0.1573,-0.86515 c -4.64039,0 -8.73022,3.83815 -8.73022,8.88751 0,4.97859 3.85388,8.86393 8.33696,8.86393 2.43817,0 4.24714,-1.3292 5.19094,-2.57974 z"
       inkscape:connector-curvature="0"
       style="font-style:normal;font-variant:normal;font-weight:normal;font-stretch:normal;letter-spacing:normal;word-spacing:normal;text-anchor:start;display:inline;fill:#000000;fill-opacity:1;fill-rule:evenodd;stroke:#000000;stroke-width:0;stroke-linecap:butt;stroke-linejoin:miter;stroke-miterlimit:10.43299961;stroke-dasharray:none;stroke-dashoffset:0;stroke-opacity:1" />
    <path
       id="path5302"
       d="m 561.9633,149.59896 0,-0.81797 c 0.23595,-5.83587 3.53927,-6.81114 4.87633,-6.81114 4.01119,0 4.40444,5.28532 4.40444,6.81114 l -9.28077,0 0,0.81797 10.85378,0 c 0.94381,0 1.02246,0 1.02246,-0.81797 0,-3.86961 -2.12357,-7.66843 -6.99991,-7.66843 -4.56173,0 -8.17966,4.02691 -8.17966,8.93471 0,5.24599 4.08983,9.04482 8.65157,9.04482 4.71903,0 6.528,-4.34938 6.528,-5.0887 0,-0.39325 -0.3146,-0.47977 -0.47191,-0.47977 -0.39325,0 -0.4719,0.23596 -0.55055,0.55056 -1.33706,4.03477 -4.87634,4.03477 -5.26959,4.03477 -1.96626,0 -3.53928,-1.17189 -4.40443,-2.61906 -1.17976,-1.87975 -1.17976,-4.47522 -1.17976,-5.89093 z"
       inkscape:connector-curvature="0"
       style="font-style:normal;font-variant:normal;font-weight:normal;font-stretch:normal;letter-spacing:normal;word-spacing:normal;text-anchor:start;display:inline;fill:#000000;fill-opacity:1;fill-rule:evenodd;stroke:#000000;stroke-width:0;stroke-linecap:butt;stroke-linejoin:miter;stroke-miterlimit:10.43299961;stroke-dasharray:none;stroke-dashoffset:0;stroke-opacity:1" />
  </g>
  <g
     inkscape:label="Layer 1"
     inkscape:groupmode="layer"
     id="layer1"
     transform="translate(32.043037,-645.12298)"
     style="display:inline">
    <g
       style="display:inline"
       id="g5180"
       transform="matrix(2.2421541,0,0,2.2421541,-581.65775,-382.41783)">
      <g
         word-spacing="normal"
         letter-spacing="normal"
         font-size-adjust="none"
         font-stretch="normal"
         font-weight="normal"
         font-variant="normal"
         font-style="normal"
         stroke-miterlimit="10.433"
         xml:space="preserve"
         transform="matrix(0.3507814,0,0,-0.3507814,-61.386745,578.92868)"
         id="g5182"
         style="font-style:normal;font-variant:normal;font-weight:normal;font-stretch:normal;letter-spacing:normal;word-spacing:normal;text-anchor:start;fill:none;fill-opacity:1;fill-rule:evenodd;stroke:#000000;stroke-linecap:butt;stroke-linejoin:miter;stroke-miterlimit:10.43299961;stroke-dasharray:none;stroke-dashoffset:0;stroke-opacity:1"><path
           id="path5184"
           d="m 922.52,313.23 0.04,0.11 0.05,0.12 0.05,0.12 0.05,0.12 0.06,0.13 0.06,0.13 0.06,0.13 0.08,0.14 0.07,0.14 0.08,0.13 0.09,0.14 0.09,0.14 0.1,0.13 0.11,0.14 0.12,0.13 0.12,0.13 0.13,0.13 0.14,0.12 0.15,0.12 0.16,0.11 0.17,0.11 0.18,0.1 0.19,0.1 0.2,0.08 0.21,0.08 0.22,0.08 0.24,0.06 0.25,0.05 0.26,0.05 0.13,0.02 0.14,0.01 0.15,0.01 0.14,0.01 0.15,0.01 0.15,0 0,1.55 c -1.15,-0.09 -2.59,-0.14 -3.73,-0.14 -1.2,0 -3.5,0.09 -4.35,0.14 l 0,-1.55 c 1.85,-0.04 2.4,-1.18 2.4,-2.14 0,-0.44 -0.1,-0.64 -0.3,-1.19 l -5.08,-12.7 -5.58,13.89 c -0.29,0.66 -0.29,0.75 -0.29,0.86 0,1.28 1.93,1.28 2.82,1.28 l 0,1.55 c -1.48,-0.05 -4.28,-0.14 -5.42,-0.14 -1.34,0 -3.34,0.05 -4.83,0.14 l 0,-1.55 c 3.13,0 3.33,-0.29 3.99,-1.84 l 7.17,-17.67 c 0.3,-0.71 0.39,-0.96 1.05,-0.96 0.64,0 0.84,0.46 1.04,0.96 z"
           inkscape:connector-curvature="0"
           style="fill:#000000;stroke-width:0" /><path
           id="path5186"
           d="m 932.17,308.16 0.05,1.04 c 0.29,7.42 4.48,8.66 6.18,8.66 5.13,0 5.63,-6.72 5.63,-8.66 l -11.81,0 -0.05,-1.04 13.9,0 c 1.1,0 1.24,0 1.24,1.04 0,4.92 -2.69,9.75 -8.91,9.75 -5.78,0 -10.37,-5.12 -10.37,-11.36 0,-6.67 5.23,-11.5 10.97,-11.5 6.07,0 8.31,5.53 8.31,6.47 0,0.5 -0.39,0.61 -0.64,0.61 -0.45,0 -0.55,-0.29 -0.66,-0.7 -1.73,-5.13 -6.22,-5.13 -6.72,-5.13 -2.5,0 -4.48,1.49 -5.62,3.33 -1.5,2.39 -1.5,5.69 -1.5,7.49 z"
           inkscape:connector-curvature="0"
           style="fill:#000000;stroke-width:0" /><path
           id="path5188"
           d="m 954.2,313.78 0,-13.36 c 0,-2.23 -0.55,-2.23 -3.89,-2.23 l 0,-1.55 c 1.75,0.05 4.28,0.16 5.62,0.16 1.3,0 3.89,-0.11 5.58,-0.16 l 0,1.55 c -3.33,0 -3.87,0 -3.87,2.23 l 0,9.17 c 0,5.19 3.53,7.97 6.71,7.97 3.15,0 3.69,-2.68 3.69,-5.53 l 0,-11.61 c 0,-2.23 -0.54,-2.23 -3.89,-2.23 l 0,-1.55 c 1.75,0.05 4.3,0.16 5.64,0.16 1.3,0 3.88,-0.11 5.58,-0.16 l 0,1.55 c -2.59,0 -3.84,0 -3.89,1.5 l 0,9.51 c 0,4.28 0,5.83 -1.55,7.61 -0.68,0.86 -2.34,1.85 -5.21,1.85 -3.65,0 -5.99,-2.14 -7.38,-5.22 l 0,5.22 -7.03,-0.55 0,-1.55 c 3.48,0 3.89,-0.34 3.89,-2.78 z"
           inkscape:connector-curvature="0"
           style="fill:#000000;stroke-width:0" /><path
           id="path5190"
           d="m 986.79,306.31 0.11,-0.02 0.13,-0.02 0.14,-0.03 0.16,-0.04 0.17,-0.03 0.18,-0.05 0.19,-0.05 0.2,-0.06 0.2,-0.06 0.21,-0.07 0.22,-0.08 0.21,-0.08 0.23,-0.1 0.22,-0.1 0.22,-0.11 0.22,-0.12 0.21,-0.13 0.21,-0.15 0.21,-0.15 0.2,-0.16 0.19,-0.18 0.18,-0.18 0.17,-0.2 0.15,-0.22 0.15,-0.22 0.06,-0.12 0.07,-0.12 0.05,-0.12 0.06,-0.13 0.05,-0.13 0.04,-0.14 0.04,-0.14 0.04,-0.14 0.03,-0.15 0.02,-0.15 0.02,-0.15 0.02,-0.16 0.01,-0.16 0,-0.17 c 0,-2.53 -1.75,-4.53 -5.63,-4.53 -4.18,0 -5.98,2.84 -6.93,7.08 -0.14,0.64 -0.19,0.84 -0.69,0.84 -0.66,0 -0.66,-0.34 -0.66,-1.25 l 0,-6.58 c 0,-0.84 0,-1.19 0.55,-1.19 0.25,0 0.3,0.05 1.25,1 0.1,0.1 0.1,0.19 1,1.14 2.19,-2.09 4.44,-2.14 5.48,-2.14 5.72,0 8.02,3.35 8.02,6.93 0,2.64 -1.5,4.14 -2.09,4.73 -1.64,1.59 -3.6,2 -5.69,2.39 -2.78,0.55 -6.12,1.2 -6.12,4.09 0,1.74 1.29,3.79 5.57,3.79 5.49,0 5.74,-4.49 5.83,-6.04 0.06,-0.45 0.5,-0.45 0.61,-0.45 0.64,0 0.64,0.25 0.64,1.2 l 0,5.04 c 0,0.84 0,1.18 -0.55,1.18 -0.25,0 -0.34,0 -1,-0.59 -0.14,-0.2 -0.64,-0.64 -0.84,-0.8 -1.89,1.39 -3.94,1.39 -4.69,1.39 -6.07,0 -7.97,-3.33 -7.97,-6.12 0,-1.74 0.8,-3.14 2.15,-4.24 1.59,-1.29 3,-1.59 6.57,-2.28 z"
           inkscape:connector-curvature="0"
           style="fill:#000000;stroke-width:0" /><path
           id="path5192"
           d="m 1004.7,316.56 7.2,0 0,1.55 -7.2,0 0,9.17 -1.2,0 c -0.1,-4.08 -1.6,-9.42 -6.43,-9.61 l 0,-1.11 4.23,0 0,-13.75 c 0,-6.12 4.6,-6.72 6.4,-6.72 3.5,0 5,3.53 5,6.72 l 0,2.85 -1.3,0 0,-2.74 c 0,-3.69 -1.5,-5.58 -3.3,-5.58 -3.4,0 -3.4,4.54 -3.4,5.38 z"
           inkscape:connector-curvature="0"
           style="fill:#000000;stroke-width:0" /><path
           id="path5194"
           d="m 1023.7,313.19 0,5.47 -6.9,-0.55 0,-1.55 c 3.5,0 3.9,-0.34 3.9,-2.78 l 0,-13.36 c 0,-2.23 -0.5,-2.23 -3.9,-2.23 l 0,-1.55 c 2,0.05 4.3,0.16 5.7,0.16 2,0 4.3,0 6.3,-0.16 l 0,1.55 -1,0 c -3.7,0 -3.8,0.54 -3.8,2.34 l 0,7.67 c 0,4.92 2.1,9.36 5.9,9.36 0.3,0 0.4,0 0.5,-0.04 -0.1,-0.05 -1.1,-0.64 -1.1,-1.94 0,-1.41 1,-2.14 2.1,-2.14 0.9,0 2.2,0.59 2.2,2.18 0,1.6 -1.6,3.04 -3.7,3.04 -3.7,0 -5.5,-3.33 -6.2,-5.47 z"
           inkscape:connector-curvature="0"
           style="fill:#000000;stroke-width:0" /><path
           id="path5196"
           d="m 1040.5,308.16 0.1,1.04 c 0.3,7.42 4.5,8.66 6.2,8.66 5.1,0 5.6,-6.72 5.6,-8.66 l -11.8,0 -0.1,-1.04 13.9,0 c 1.1,0 1.3,0 1.3,1.04 0,4.92 -2.7,9.75 -8.9,9.75 -5.8,0 -10.4,-5.12 -10.4,-11.36 0,-6.67 5.2,-11.5 10.9,-11.5 6.1,0 8.4,5.53 8.4,6.47 0,0.5 -0.4,0.61 -0.7,0.61 -0.4,0 -0.5,-0.29 -0.6,-0.7 -1.8,-5.13 -6.3,-5.13 -6.8,-5.13 -2.5,0 -4.4,1.49 -5.6,3.33 -1.5,2.39 -1.5,5.69 -1.5,7.49 z"
           inkscape:connector-curvature="0"
           style="fill:#000000;stroke-width:0" /><path
           id="path5198"
           d="m 1067.4,306.31 0.1,-0.02 0.2,-0.02 0.1,-0.03 0.2,-0.04 0.1,-0.03 0.2,-0.05 0.2,-0.05 0.2,-0.06 0.2,-0.06 0.2,-0.07 0.2,-0.08 0.2,-0.08 0.3,-0.1 0.2,-0.1 0.2,-0.11 0.2,-0.12 0.2,-0.13 0.3,-0.15 0.2,-0.15 0.2,-0.16 0.1,-0.18 0.2,-0.18 0.2,-0.2 0.2,-0.22 0.1,-0.22 0.1,-0.12 0,-0.12 0.1,-0.12 0,-0.13 0.1,-0.13 0,-0.14 0.1,-0.14 0,-0.14 0,-0.15 0.1,-0.15 0,-0.15 0,-0.16 0,-0.16 0,-0.17 c 0,-2.53 -1.7,-4.53 -5.6,-4.53 -4.2,0 -6,2.84 -6.9,7.08 -0.2,0.64 -0.2,0.84 -0.7,0.84 -0.7,0 -0.7,-0.34 -0.7,-1.25 l 0,-6.58 c 0,-0.84 0,-1.19 0.5,-1.19 0.3,0 0.4,0.05 1.3,1 0.1,0.1 0.1,0.19 1,1.14 2.2,-2.09 4.4,-2.14 5.5,-2.14 5.7,0 8,3.35 8,6.93 0,2.64 -1.5,4.14 -2.1,4.73 -1.6,1.59 -3.6,2 -5.7,2.39 -2.8,0.55 -6.1,1.2 -6.1,4.09 0,1.74 1.3,3.79 5.6,3.79 5.5,0 5.7,-4.49 5.8,-6.04 0.1,-0.45 0.5,-0.45 0.6,-0.45 0.7,0 0.7,0.25 0.7,1.2 l 0,5.04 c 0,0.84 0,1.18 -0.6,1.18 -0.2,0 -0.3,0 -1,-0.59 -0.1,-0.2 -0.6,-0.64 -0.8,-0.8 -1.9,1.39 -4,1.39 -4.7,1.39 -6.1,0 -8,-3.33 -8,-6.12 0,-1.74 0.8,-3.14 2.1,-4.24 1.6,-1.29 3,-1.59 6.6,-2.28 z"
           inkscape:connector-curvature="0"
           style="fill:#000000;stroke-width:0" /><path
           id="path5200"
           d="m 1085.6,318.66 -7,-0.55 0,-1.55 c 3.2,0 3.7,-0.29 3.7,-2.73 l 0,-13.41 c 0,-2.23 -0.6,-2.23 -3.9,-2.23 l 0,-1.55 c 1.6,0.05 4.3,0.16 5.5,0.16 1.7,0 3.5,-0.11 5.2,-0.16 l 0,1.55 c -3.3,0 -3.5,0.25 -3.5,2.19 z"
           inkscape:connector-curvature="0"
           style="fill:#000000;stroke-width:0" /><path
           id="path5202"
           d="m 1085.8,327.33 0,0.15 -0.1,0.14 0,0.14 0,0.14 0,0.13 -0.1,0.13 0,0.13 -0.1,0.12 0,0.12 -0.1,0.12 0,0.11 -0.1,0.1 -0.1,0.11 -0.1,0.09 0,0.1 -0.1,0.09 -0.1,0.08 -0.1,0.08 -0.1,0.07 -0.1,0.07 -0.1,0.07 -0.2,0.06 -0.1,0.05 -0.1,0.05 -0.1,0.04 -0.1,0.04 -0.1,0.03 -0.2,0.03 -0.1,0.02 -0.1,0.02 -0.2,0.01 -0.1,0 c -1.5,0 -2.6,-1.35 -2.6,-2.64 0,-1.35 1.1,-2.64 2.6,-2.64 1.4,0 2.7,1.04 2.7,2.64 z"
           inkscape:connector-curvature="0"
           style="fill:#000000;stroke-width:0" /><path
           id="path5204"
           d="m 1109.5,299.38 0,-3.29 7.3,0.55 0,1.55 c -3.5,0 -3.9,0.34 -3.9,2.78 l 0,30.25 -7.1,-0.55 0,-1.55 c 3.4,0 3.8,-0.34 3.8,-2.79 l 0,-10.75 c -1.4,1.78 -3.6,3.08 -6.3,3.08 l 0.2,-1.1 c 1.8,0 3.9,-0.75 5.4,-2.98 0.6,-0.85 0.6,-0.96 0.6,-1.85 l 0,0 0,-10.21 c 0,-0.9 0,-1 -0.6,-1.85 -1.5,-2.39 -3.7,-3.48 -5.9,-3.48 -2.2,0 -4,1.29 -5.2,3.19 -1.3,2.04 -1.4,4.89 -1.4,6.92 0,1.84 0.1,4.84 1.5,7.08 1.1,1.54 3,3.18 5.6,3.18 l -0.2,1.1 c -5.8,0 -11.1,-4.88 -11.1,-11.3 0,-6.33 4.9,-11.27 10.6,-11.27 3.2,0 5.4,1.69 6.7,3.29 z"
           inkscape:connector-curvature="0"
           style="fill:#000000;stroke-width:0" /><path
           id="path5206"
           d="m 1123.8,308.16 0,1.04 c 0.3,7.42 4.5,8.66 6.2,8.66 5.2,0 5.7,-6.72 5.7,-8.66 l -11.9,0 0,-1.04 13.9,0 c 1.1,0 1.2,0 1.2,1.04 0,4.92 -2.7,9.75 -8.9,9.75 -5.8,0 -10.3,-5.12 -10.3,-11.36 0,-6.67 5.2,-11.5 10.9,-11.5 6.1,0 8.3,5.53 8.3,6.47 0,0.5 -0.4,0.61 -0.6,0.61 -0.5,0 -0.5,-0.29 -0.7,-0.7 -1.7,-5.13 -6.2,-5.13 -6.7,-5.13 -2.5,0 -4.5,1.49 -5.6,3.33 -1.5,2.39 -1.5,5.69 -1.5,7.49 z"
           inkscape:connector-curvature="0"
           style="fill:#000000;stroke-width:0" /><path
           id="path5208"
           d="m 1188.5,312.94 0.1,0 0.2,0 0.1,0 0.1,0.01 0.1,0 0,0.01 0.1,0.01 0.1,0.01 0.1,0.01 0,0.01 0.1,0.02 0.1,0.02 0,0.02 0.1,0.03 0,0.02 0.1,0.03 0,0.04 0.1,0.04 0,0.04 0.1,0.04 0,0.05 0,0.03 0.1,0.03 0,0.03 0,0.03 0,0.03 0,0.03 0,0.03 0,0.04 0,0.03 0.1,0.04 0,0.04 0,0.04 0,0.04 0,0.04 0,0.05 0,0.04 c 0,1 -1,1 -1.7,1 l -29.8,0 c -0.7,0 -1.6,0 -1.6,-1 0,-0.98 0.9,-0.98 1.7,-0.98 z"
           inkscape:connector-curvature="0"
           style="fill:#000000;stroke-width:0" /><path
           id="path5210"
           d="m 1188.5,303.27 0.1,0 0.1,0 0.1,0 0.1,0 0.1,0.01 0.1,0 0.1,0.01 0,0.01 0.1,0.01 0.1,0.01 0,0.01 0.1,0.02 0.1,0.02 0,0.02 0.1,0.03 0,0.02 0.1,0.04 0,0.03 0.1,0.04 0,0.04 0.1,0.05 0,0.02 0,0.03 0,0.02 0.1,0.03 0,0.03 0,0.03 0,0.03 0,0.04 0,0.03 0,0.04 0,0.03 0.1,0.04 0,0.04 0,0.04 0,0.04 0,0.05 0,0.04 0,0.05 c 0,1 -1,1 -1.7,1 l -29.7,0 c -0.8,0 -1.7,0 -1.7,-1 0,-1 0.9,-1 1.6,-1 z"
           inkscape:connector-curvature="0"
           style="fill:#000000;stroke-width:0" /><path
           id="path5212"
           d="m 1215.1,300.42 0,-0.1 0,-0.1 0,-0.19 -0.1,-0.18 0,-0.17 0,-0.15 0,-0.14 0,-0.14 -0.1,-0.12 0,-0.11 -0.1,-0.11 0,-0.09 -0.1,-0.09 -0.1,-0.07 0,-0.07 -0.1,-0.07 -0.1,-0.05 -0.1,-0.05 -0.2,-0.04 -0.1,-0.04 -0.1,-0.03 -0.2,-0.03 -0.1,-0.02 -0.2,-0.02 -0.1,-0.01 -0.1,-0.01 -0.1,0 -0.1,-0.01 -0.1,0 -0.1,-0.01 -0.1,0 -0.2,0 -0.1,-0.01 -0.1,0 -0.1,0 -0.2,0 -0.1,0 -0.1,0 -0.2,0 -0.1,0 -0.2,0 -0.1,0 0,-1.55 c 1.7,0.05 4.2,0.16 5.6,0.16 1.3,0 3.9,-0.11 5.6,-0.16 l 0,1.55 c -3.3,0 -3.9,0 -3.9,2.23 l 0,9.17 c 0,5.19 3.5,7.97 6.7,7.97 3.2,0 3.7,-2.68 3.7,-5.53 l 0,-11.61 c 0,-2.23 -0.5,-2.23 -3.9,-2.23 l 0,-1.55 c 1.8,0.05 4.3,0.16 5.7,0.16 1.2,0 3.8,-0.11 5.5,-0.16 l 0,1.55 c -2.6,0 -3.8,0 -3.9,1.5 l 0,9.51 c 0,4.28 0,5.83 -1.5,7.61 -0.7,0.86 -2.4,1.85 -5.2,1.85 -4.2,0 -6.4,-2.99 -7.3,-4.88 l 0,17.44 -7.1,-0.55 0,-1.55 c 3.5,0 3.9,-0.34 3.9,-2.79 z"
           inkscape:connector-curvature="0"
           style="fill:#000000;stroke-width:0" /><path
           id="path5214"
           d="m 1259.2,322.64 -1,0.61 -3.3,-5.78 c -1.1,0.75 -3,1.48 -5.1,1.48 l -0.1,-1.09 c 2,0 3.5,-0.89 4.4,-1.69 l -9.5,-16.59 c -1.9,2.09 -2.1,4.94 -2.1,7.72 0,2.09 0.1,4.89 1.4,7.12 1.5,2.6 4,3.44 5.8,3.44 l 0.1,1.09 c -6,0 -10.7,-5.28 -10.7,-11.7 0,-3.98 1.9,-7.33 4.6,-9.22 l -3.1,-5.37 -0.3,-0.5 0.9,-0.6 3.4,5.88 c 1.2,-0.64 3,-1.35 5.1,-1.35 l 0.1,1.1 c -1.3,0 -3,0.34 -4.4,1.54 l 9.5,16.55 c 2,-2.3 2.1,-5.94 2.1,-7.98 0,-1.64 0,-4.63 -1.5,-6.92 -1.4,-2.3 -3.8,-3.19 -5.7,-3.19 l -0.1,-1.1 c 5.9,0 10.7,4.99 10.7,11.16 0,4.89 -2.7,8.22 -4.6,9.63 z"
           inkscape:connector-curvature="0"
           style="fill:#000000;stroke-width:0" /><path
           id="path5216"
           d="m 1282.9,313.38 0.1,0.14 0.1,0.14 0,0.14 0.1,0.13 0.1,0.13 0,0.12 0.1,0.12 0.1,0.11 0.1,0.22 0.2,0.21 0.1,0.18 0.2,0.18 0.2,0.16 0.1,0.15 0.2,0.13 0.2,0.12 0.1,0.12 0.2,0.1 0.2,0.09 0.1,0.08 0.2,0.07 0.2,0.06 0.1,0.06 0.2,0.04 0.1,0.04 0.2,0.04 0.1,0.02 0.2,0.03 0.1,0.01 0.2,0.02 0.1,0.01 0.1,0 0.1,0.01 0.1,0 0.1,0 0.1,0 0,1.55 c -1.2,-0.09 -2.6,-0.14 -3.8,-0.14 -0.9,0 -3.2,0.09 -4.3,0.14 l 0,-1.55 c 1.5,-0.04 2.3,-0.89 2.3,-2.14 0,-0.5 0,-0.59 -0.3,-1.19 l -5,-12.26 -5.5,13.41 c -0.2,0.5 -0.3,0.7 -0.3,0.9 0,1.28 1.8,1.28 2.8,1.28 l 0,1.55 c -1.3,-0.05 -4.6,-0.14 -5.5,-0.14 -1.3,0 -3.3,0.05 -4.8,0.14 l 0,-1.55 c 2.4,0 3.3,0 4,-1.73 l 7.5,-18.19 c -0.2,-0.64 -0.9,-2.3 -1.2,-2.94 -1.1,-2.73 -2.5,-6.18 -5.7,-6.18 -0.3,0 -1.4,0 -2.4,0.9 1.6,0.2 2,1.3 2,2.1 0,1.29 -1,2.09 -2.1,2.09 -1,0 -2.1,-0.66 -2.1,-2.14 0,-2.25 2.1,-4.05 4.6,-4.05 3.1,0 5.2,2.85 6.4,5.69 z"
           inkscape:connector-curvature="0"
           style="fill:#000000;stroke-width:0" /><path
           id="path5218"
           d="m 1296.8,313.19 0,5.47 -6.9,-0.55 0,-1.55 c 3.5,0 3.9,-0.34 3.9,-2.78 l 0,-13.36 c 0,-2.23 -0.5,-2.23 -3.9,-2.23 l 0,-1.55 c 2,0.05 4.3,0.16 5.7,0.16 2,0 4.3,0 6.3,-0.16 l 0,1.55 -1,0 c -3.7,0 -3.8,0.54 -3.8,2.34 l 0,7.67 c 0,4.92 2.1,9.36 5.9,9.36 0.3,0 0.4,0 0.5,-0.04 -0.1,-0.05 -1.1,-0.64 -1.1,-1.94 0,-1.41 1,-2.14 2.1,-2.14 0.9,0 2.2,0.59 2.2,2.18 0,1.6 -1.6,3.04 -3.7,3.04 -3.7,0 -5.4,-3.33 -6.2,-5.47 z"
           inkscape:connector-curvature="0"
           style="fill:#000000;stroke-width:0" /><path
           id="path5220"
           d="m 1313.6,308.16 0.1,1.04 c 0.3,7.42 4.5,8.66 6.2,8.66 5.1,0 5.6,-6.72 5.6,-8.66 l -11.8,0 -0.1,-1.04 13.9,0 c 1.1,0 1.3,0 1.3,1.04 0,4.92 -2.7,9.75 -8.9,9.75 -5.8,0 -10.4,-5.12 -10.4,-11.36 0,-6.67 5.2,-11.5 10.9,-11.5 6.1,0 8.4,5.53 8.4,6.47 0,0.5 -0.4,0.61 -0.7,0.61 -0.4,0 -0.5,-0.29 -0.6,-0.7 -1.8,-5.13 -6.3,-5.13 -6.7,-5.13 -2.6,0 -4.5,1.49 -5.7,3.33 -1.5,2.39 -1.5,5.69 -1.5,7.49 z"
           inkscape:connector-curvature="0"
           style="fill:#000000;stroke-width:0" /><path
           id="path5222"
           d="m 1340.5,306.31 0.1,-0.02 0.2,-0.02 0.1,-0.03 0.2,-0.04 0.1,-0.03 0.2,-0.05 0.2,-0.05 0.2,-0.06 0.2,-0.06 0.2,-0.07 0.2,-0.08 0.2,-0.08 0.3,-0.1 0.2,-0.1 0.2,-0.11 0.2,-0.12 0.2,-0.13 0.3,-0.15 0.2,-0.15 0.2,-0.16 0.1,-0.18 0.2,-0.18 0.2,-0.2 0.2,-0.22 0.1,-0.22 0.1,-0.12 0,-0.12 0.1,-0.12 0,-0.13 0.1,-0.13 0,-0.14 0.1,-0.14 0,-0.14 0,-0.15 0.1,-0.15 0,-0.15 0,-0.16 0,-0.16 0,-0.17 c 0,-2.53 -1.7,-4.53 -5.6,-4.53 -4.2,0 -6,2.84 -6.9,7.08 -0.2,0.64 -0.2,0.84 -0.7,0.84 -0.7,0 -0.7,-0.34 -0.7,-1.25 l 0,-6.58 c 0,-0.84 0,-1.19 0.6,-1.19 0.2,0 0.3,0.05 1.2,1 0.1,0.1 0.1,0.19 1,1.14 2.2,-2.09 4.4,-2.14 5.5,-2.14 5.7,0 8,3.35 8,6.93 0,2.64 -1.5,4.14 -2.1,4.73 -1.6,1.59 -3.6,2 -5.7,2.39 -2.8,0.55 -6.1,1.2 -6.1,4.09 0,1.74 1.3,3.79 5.6,3.79 5.5,0 5.7,-4.49 5.8,-6.04 0.1,-0.45 0.5,-0.45 0.6,-0.45 0.7,0 0.7,0.25 0.7,1.2 l 0,5.04 c 0,0.84 0,1.18 -0.6,1.18 -0.2,0 -0.3,0 -1,-0.59 -0.1,-0.2 -0.6,-0.64 -0.8,-0.8 -1.9,1.39 -4,1.39 -4.7,1.39 -6.1,0 -8,-3.33 -8,-6.12 0,-1.74 0.8,-3.14 2.1,-4.24 1.6,-1.29 3,-1.59 6.6,-2.28 z"
           inkscape:connector-curvature="0"
           style="fill:#000000;stroke-width:0" /><path
           id="path5224"
           d="m 1358.7,318.66 -7,-0.55 0,-1.55 c 3.2,0 3.7,-0.29 3.7,-2.73 l 0,-13.41 c 0,-2.23 -0.6,-2.23 -3.9,-2.23 l 0,-1.55 c 1.6,0.05 4.3,0.16 5.5,0.16 1.7,0 3.5,-0.11 5.2,-0.16 l 0,1.55 c -3.3,0 -3.5,0.25 -3.5,2.19 z"
           inkscape:connector-curvature="0"
           style="fill:#000000;stroke-width:0" /><path
           id="path5226"
           d="m 1358.9,327.33 0,0.15 -0.1,0.14 0,0.14 0,0.14 0,0.13 -0.1,0.13 0,0.13 -0.1,0.12 0,0.12 -0.1,0.12 0,0.11 -0.1,0.1 -0.1,0.11 -0.1,0.09 0,0.1 -0.1,0.09 -0.1,0.08 -0.1,0.08 -0.1,0.07 -0.1,0.07 -0.1,0.07 -0.2,0.06 -0.1,0.05 -0.1,0.05 -0.1,0.04 -0.1,0.04 -0.1,0.03 -0.2,0.03 -0.1,0.02 -0.1,0.02 -0.2,0.01 -0.1,0 c -1.5,0 -2.6,-1.35 -2.6,-2.64 0,-1.35 1.1,-2.64 2.6,-2.64 1.4,0 2.7,1.04 2.7,2.64 z"
           inkscape:connector-curvature="0"
           style="fill:#000000;stroke-width:0" /><path
           id="path5228"
           d="m 1382.6,299.38 0,-3.29 7.3,0.55 0,1.55 c -3.5,0 -3.9,0.34 -3.9,2.78 l 0,30.25 -7.2,-0.55 0,-1.55 c 3.5,0 3.9,-0.34 3.9,-2.79 l 0,-10.75 c -1.4,1.78 -3.6,3.08 -6.3,3.08 l 0.2,-1.1 c 1.8,0 3.9,-0.75 5.4,-2.98 0.6,-0.85 0.6,-0.96 0.6,-1.85 l 0,0 0,-10.21 c 0,-0.9 0,-1 -0.6,-1.85 -1.5,-2.39 -3.7,-3.48 -5.9,-3.48 -2.2,0 -4,1.29 -5.2,3.19 -1.3,2.04 -1.4,4.89 -1.4,6.92 0,1.84 0.1,4.84 1.5,7.08 1.1,1.54 3,3.18 5.6,3.18 l -0.2,1.1 c -5.8,0 -11.1,-4.88 -11.1,-11.3 0,-6.33 4.9,-11.27 10.6,-11.27 3.2,0 5.4,1.69 6.7,3.29 z"
           inkscape:connector-curvature="0"
           style="fill:#000000;stroke-width:0" /><path
           id="path5230"
           d="m 1396.9,308.16 0,1.04 c 0.3,7.42 4.5,8.66 6.2,8.66 5.1,0 5.7,-6.72 5.7,-8.66 l -11.9,0 0,-1.04 13.9,0 c 1.1,0 1.2,0 1.2,1.04 0,4.92 -2.7,9.75 -8.9,9.75 -5.8,0 -10.3,-5.12 -10.3,-11.36 0,-6.67 5.2,-11.5 10.9,-11.5 6.1,0 8.3,5.53 8.3,6.47 0,0.5 -0.4,0.61 -0.6,0.61 -0.5,0 -0.6,-0.29 -0.7,-0.7 -1.7,-5.13 -6.2,-5.13 -6.7,-5.13 -2.5,0 -4.5,1.49 -5.6,3.33 -1.5,2.39 -1.5,5.69 -1.5,7.49 z"
           inkscape:connector-curvature="0"
           style="fill:#000000;stroke-width:0" /></g>    </g>
  </g>
</svg>
